<svg width="36" height="36" viewBox="0 0 36 36" fill="none" xmlns="http://www.w3.org/2000/svg">
<path d="M4.1875 2.0625H31.8125C31.8125 2.0625 33.9375 2.0625 33.9375 4.1875V31.8125C33.9375 31.8125 33.9375 33.9375 31.8125 33.9375H4.1875C4.1875 33.9375 2.0625 33.9375 2.0625 31.8125V4.1875C2.0625 4.1875 2.0625 2.0625 4.1875 2.0625Z" stroke="#2F52A0" stroke-width="2" stroke-linecap="round" stroke-linejoin="round"/>
<path d="M9.5 8.4375H26.5C26.5 8.4375 27.5625 8.4375 27.5625 9.5V26.5C27.5625 26.5 27.5625 27.5625 26.5 27.5625H9.5C9.5 27.5625 8.4375 27.5625 8.4375 26.5V9.5C8.4375 9.5 8.4375 8.4375 9.5 8.4375Z" stroke="#2F52A0" stroke-width="2" stroke-linecap="round" stroke-linejoin="round"/>
<path d="M2.68726 2.68579L8.75201 8.75196" stroke="#2F52A0" stroke-width="2" stroke-linecap="round" stroke-linejoin="round"/>
<path d="M27.2494 8.75196L33.3156 2.68579" stroke="#2F52A0" stroke-width="2" stroke-linecap="round" stroke-linejoin="round"/>
<path d="M27.2494 27.2495L33.3156 33.3143" stroke="#2F52A0" stroke-width="2" stroke-linecap="round" stroke-linejoin="round"/>
<path d="M8.75059 27.2495L2.68584 33.3143" stroke="#2F52A0" stroke-width="2" stroke-linecap="round" stroke-linejoin="round"/>
<path d="M8.4375 14.8125H27.5625" stroke="#2F52A0" stroke-width="2" stroke-linecap="round" stroke-linejoin="round"/>
<path d="M8.4375 21.1875H27.5625" stroke="#2F52A0" stroke-width="2" stroke-linecap="round" stroke-linejoin="round"/>
</svg>
