<svg width="36" height="36" viewBox="0 0 36 36" fill="none" xmlns="http://www.w3.org/2000/svg">
<path d="M16.9375 25.4375C16.9375 27.6918 17.833 29.8538 19.4271 31.4479C21.0212 33.042 23.1832 33.9375 25.4375 33.9375C27.6918 33.9375 29.8538 33.042 31.4479 31.4479C33.042 29.8538 33.9375 27.6918 33.9375 25.4375C33.9375 23.1832 33.042 21.0212 31.4479 19.4271C29.8538 17.833 27.6918 16.9375 25.4375 16.9375C23.1832 16.9375 21.0212 17.833 19.4271 19.4271C17.833 21.0212 16.9375 23.1832 16.9375 25.4375Z" stroke="#2F52A0" stroke-width="2" stroke-linecap="round" stroke-linejoin="round"/>
<path d="M25.4375 21.1875V29.6875" stroke="#2F52A0" stroke-width="2" stroke-linecap="round" stroke-linejoin="round"/>
<path d="M25.4375 29.6875L22.25 26.5" stroke="#2F52A0" stroke-width="2" stroke-linecap="round" stroke-linejoin="round"/>
<path d="M25.4375 29.6875L28.625 26.5" stroke="#2F52A0" stroke-width="2" stroke-linecap="round" stroke-linejoin="round"/>
<path d="M6.3125 10.5625H21.1875" stroke="#2F52A0" stroke-width="2" stroke-linecap="round" stroke-linejoin="round"/>
<path d="M6.3125 16.9375H14.8125" stroke="#2F52A0" stroke-width="2" stroke-linecap="round" stroke-linejoin="round"/>
<path d="M6.3125 23.3125H11.625" stroke="#2F52A0" stroke-width="2" stroke-linecap="round" stroke-linejoin="round"/>
<path d="M11.625 29.6875H4.1875C3.62391 29.6875 3.08341 29.4636 2.6849 29.0651C2.28638 28.6666 2.0625 28.1261 2.0625 27.5625V4.1875C2.0625 3.62391 2.28638 3.08341 2.6849 2.6849C3.08341 2.28638 3.62391 2.0625 4.1875 2.0625H19.2453C19.8084 2.06262 20.3486 2.28631 20.7469 2.68442L24.8156 6.75308C25.2137 7.15145 25.4374 7.69156 25.4375 8.25475V11.625" stroke="#2F52A0" stroke-width="2" stroke-linecap="round" stroke-linejoin="round"/>
</svg>
