<svg width="36" height="36" viewBox="0 0 36 36" fill="none" xmlns="http://www.w3.org/2000/svg">
<path d="M2.41667 3.80169C2.41667 3.03668 3.03685 2.4165 3.80186 2.4165H8.65001C9.41502 2.4165 10.0352 3.03668 10.0352 3.80169V8.64984C10.0352 9.41485 9.41502 10.035 8.65001 10.035H3.80186C3.03685 10.035 2.41667 9.41485 2.41667 8.64984V3.80169Z" stroke="#2F52A0" stroke-width="2" stroke-linejoin="round"/>
<path d="M6.22586 6.91839C5.84334 6.91839 5.53326 6.60831 5.53326 6.2258C5.53326 5.84328 5.84334 5.5332 6.22586 5.5332" stroke="#2F52A0" stroke-width="2" stroke-linecap="round" stroke-linejoin="round"/>
<path d="M6.22586 6.91839C6.60837 6.91839 6.91845 6.60831 6.91845 6.2258C6.91845 5.84328 6.60837 5.5332 6.22586 5.5332" stroke="#2F52A0" stroke-width="2" stroke-linecap="round" stroke-linejoin="round"/>
<path d="M18 6.91839C17.6175 6.91839 17.3074 6.60831 17.3074 6.2258C17.3074 5.84328 17.6175 5.5332 18 5.5332" stroke="#2F52A0" stroke-width="2" stroke-linecap="round" stroke-linejoin="round"/>
<path d="M18 6.91839C18.3825 6.91839 18.6926 6.60831 18.6926 6.2258C18.6926 5.84328 18.3825 5.5332 18 5.5332" stroke="#2F52A0" stroke-width="2" stroke-linecap="round" stroke-linejoin="round"/>
<path d="M29.7742 6.91839C29.3916 6.91839 29.0816 6.60831 29.0816 6.2258C29.0816 5.84328 29.3916 5.5332 29.7742 5.5332" stroke="#2F52A0" stroke-width="2" stroke-linecap="round" stroke-linejoin="round"/>
<path d="M29.7742 6.91839C30.1567 6.91839 30.4667 6.60831 30.4667 6.2258C30.4667 5.84328 30.1567 5.5332 29.7742 5.5332" stroke="#2F52A0" stroke-width="2" stroke-linecap="round" stroke-linejoin="round"/>
<path d="M6.22586 18.6928C5.84334 18.6928 5.53326 18.3827 5.53326 18.0002C5.53326 17.6177 5.84334 17.3076 6.22586 17.3076" stroke="#2F52A0" stroke-width="2" stroke-linecap="round" stroke-linejoin="round"/>
<path d="M6.22586 18.6928C6.60837 18.6928 6.91845 18.3827 6.91845 18.0002C6.91845 17.6177 6.60837 17.3076 6.22586 17.3076" stroke="#2F52A0" stroke-width="2" stroke-linecap="round" stroke-linejoin="round"/>
<path d="M6.22586 30.4666C5.84334 30.4666 5.53326 30.1567 5.53326 29.7742C5.53326 29.3915 5.84334 29.0815 6.22586 29.0815" stroke="#2F52A0" stroke-width="2" stroke-linecap="round" stroke-linejoin="round"/>
<path d="M6.22586 30.4666C6.60837 30.4666 6.91845 30.1567 6.91845 29.7742C6.91845 29.3915 6.60837 29.0815 6.22586 29.0815" stroke="#2F52A0" stroke-width="2" stroke-linecap="round" stroke-linejoin="round"/>
<path d="M18 18.6928C17.6175 18.6928 17.3074 18.3827 17.3074 18.0002C17.3074 17.6177 17.6175 17.3076 18 17.3076" stroke="#2F52A0" stroke-width="2" stroke-linecap="round" stroke-linejoin="round"/>
<path d="M18 18.6928C18.3825 18.6928 18.6926 18.3827 18.6926 18.0002C18.6926 17.6177 18.3825 17.3076 18 17.3076" stroke="#2F52A0" stroke-width="2" stroke-linecap="round" stroke-linejoin="round"/>
<path d="M18 30.4666C17.6175 30.4666 17.3074 30.1567 17.3074 29.7742C17.3074 29.3915 17.6175 29.0815 18 29.0815" stroke="#2F52A0" stroke-width="2" stroke-linecap="round" stroke-linejoin="round"/>
<path d="M18 30.4666C18.3825 30.4666 18.6926 30.1567 18.6926 29.7742C18.6926 29.3915 18.3825 29.0815 18 29.0815" stroke="#2F52A0" stroke-width="2" stroke-linecap="round" stroke-linejoin="round"/>
<path d="M29.7742 18.6928C29.3916 18.6928 29.0816 18.3827 29.0816 18.0002C29.0816 17.6177 29.3916 17.3076 29.7742 17.3076" stroke="#2F52A0" stroke-width="2" stroke-linecap="round" stroke-linejoin="round"/>
<path d="M29.7742 18.6928C30.1567 18.6928 30.4667 18.3827 30.4667 18.0002C30.4667 17.6177 30.1567 17.3076 29.7742 17.3076" stroke="#2F52A0" stroke-width="2" stroke-linecap="round" stroke-linejoin="round"/>
<path d="M29.7742 30.4666C29.3916 30.4666 29.0816 30.1567 29.0816 29.7742C29.0816 29.3915 29.3916 29.0815 29.7742 29.0815" stroke="#2F52A0" stroke-width="2" stroke-linecap="round" stroke-linejoin="round"/>
<path d="M29.7742 30.4666C30.1567 30.4666 30.4667 30.1567 30.4667 29.7742C30.4667 29.3915 30.1567 29.0815 29.7742 29.0815" stroke="#2F52A0" stroke-width="2" stroke-linecap="round" stroke-linejoin="round"/>
<path d="M14.1908 3.80169C14.1908 3.03668 14.811 2.4165 15.5759 2.4165H20.4242C21.1892 2.4165 21.8093 3.03668 21.8093 3.80169V8.64984C21.8093 9.41485 21.1892 10.035 20.4242 10.035H15.5759C14.811 10.035 14.1908 9.41485 14.1908 8.64984V3.80169Z" stroke="#2F52A0" stroke-width="2" stroke-linejoin="round"/>
<path d="M25.9648 3.80169C25.9648 3.03668 26.585 2.4165 27.35 2.4165H32.1981C32.9631 2.4165 33.5833 3.03668 33.5833 3.80169V8.64984C33.5833 9.41485 32.9631 10.035 32.1981 10.035H27.35C26.585 10.035 25.9648 9.41485 25.9648 8.64984V3.80169Z" stroke="#2F52A0" stroke-width="2" stroke-linejoin="round"/>
<path d="M10.0352 6.22607H14.1908" stroke="#2F52A0" stroke-width="2" stroke-linecap="round" stroke-linejoin="round"/>
<path d="M21.8091 6.22607H25.9648" stroke="#2F52A0" stroke-width="2" stroke-linecap="round" stroke-linejoin="round"/>
<path d="M2.41667 15.576C2.41667 14.8111 3.03685 14.1909 3.80186 14.1909H8.65001C9.41502 14.1909 10.0352 14.8111 10.0352 15.576V20.4243C10.0352 21.1893 9.41502 21.8094 8.65001 21.8094H3.80186C3.03685 21.8094 2.41667 21.1893 2.41667 20.4243V15.576Z" stroke="#2F52A0" stroke-width="2" stroke-linejoin="round"/>
<path d="M14.1908 15.576C14.1908 14.8111 14.811 14.1909 15.5759 14.1909H20.4242C21.1892 14.1909 21.8093 14.8111 21.8093 15.576V20.4243C21.8093 21.1893 21.1892 21.8094 20.4242 21.8094H15.5759C14.811 21.8094 14.1908 21.1893 14.1908 20.4243V15.576Z" stroke="#2F52A0" stroke-width="2" stroke-linejoin="round"/>
<path d="M25.9648 15.576C25.9648 14.8111 26.585 14.1909 27.35 14.1909H32.1981C32.9631 14.1909 33.5833 14.8111 33.5833 15.576V20.4243C33.5833 21.1893 32.9631 21.8094 32.1981 21.8094H27.35C26.585 21.8094 25.9648 21.1893 25.9648 20.4243V15.576Z" stroke="#2F52A0" stroke-width="2" stroke-linejoin="round"/>
<path d="M10.0352 18H14.1908" stroke="#2F52A0" stroke-width="2" stroke-linecap="round" stroke-linejoin="round"/>
<path d="M21.8091 18H25.9648" stroke="#2F52A0" stroke-width="2" stroke-linecap="round" stroke-linejoin="round"/>
<path d="M2.41667 27.3501C2.41667 26.5851 3.03685 25.9648 3.80186 25.9648H8.65001C9.41502 25.9648 10.0352 26.5851 10.0352 27.3501V32.1982C10.0352 32.9632 9.41502 33.5834 8.65001 33.5834H3.80186C3.03685 33.5834 2.41667 32.9632 2.41667 32.1982V27.3501Z" stroke="#2F52A0" stroke-width="2" stroke-linejoin="round"/>
<path d="M14.1908 27.3501C14.1908 26.5851 14.811 25.9648 15.5759 25.9648H20.4242C21.1892 25.9648 21.8093 26.5851 21.8093 27.3501V32.1982C21.8093 32.9632 21.1892 33.5834 20.4242 33.5834H15.5759C14.811 33.5834 14.1908 32.9632 14.1908 32.1982V27.3501Z" stroke="#2F52A0" stroke-width="2" stroke-linejoin="round"/>
<path d="M25.9648 27.3501C25.9648 26.5851 26.585 25.9648 27.35 25.9648H32.1981C32.9631 25.9648 33.5833 26.5851 33.5833 27.3501V32.1982C33.5833 32.9632 32.9631 33.5834 32.1981 33.5834H27.35C26.585 33.5834 25.9648 32.9632 25.9648 32.1982V27.3501Z" stroke="#2F52A0" stroke-width="2" stroke-linejoin="round"/>
<path d="M10.0352 29.7744H14.1908" stroke="#2F52A0" stroke-width="2" stroke-linecap="round" stroke-linejoin="round"/>
<path d="M21.8091 29.7744H25.9648" stroke="#2F52A0" stroke-width="2" stroke-linecap="round" stroke-linejoin="round"/>
<path d="M29.7742 10.0352V14.1907" stroke="#2F52A0" stroke-width="2" stroke-linecap="round" stroke-linejoin="round"/>
<path d="M29.7742 21.8091V25.9647" stroke="#2F52A0" stroke-width="2" stroke-linecap="round" stroke-linejoin="round"/>
<path d="M18 10.0352V14.1907" stroke="#2F52A0" stroke-width="2" stroke-linecap="round" stroke-linejoin="round"/>
<path d="M18 21.8091V25.9647" stroke="#2F52A0" stroke-width="2" stroke-linecap="round" stroke-linejoin="round"/>
<path d="M6.22586 10.0352V14.1907" stroke="#2F52A0" stroke-width="2" stroke-linecap="round" stroke-linejoin="round"/>
<path d="M6 22V26.1556" stroke="#2F52A0" stroke-width="2" stroke-linecap="round" stroke-linejoin="round"/>
</svg>
