<svg width="36" height="36" viewBox="0 0 36 36" fill="none" xmlns="http://www.w3.org/2000/svg">
<path d="M8.19677 18H2.78604" stroke="#2F52A0" stroke-width="2" stroke-linecap="round" stroke-linejoin="round"/>
<path d="M33.2126 18H15.175" stroke="#2F52A0" stroke-width="2" stroke-linecap="round" stroke-linejoin="round"/>
<path d="M20.825 29.4995H2.78604" stroke="#2F52A0" stroke-width="2" stroke-linecap="round" stroke-linejoin="round"/>
<path d="M33.2126 29.4995H27.8032" stroke="#2F52A0" stroke-width="2" stroke-linecap="round" stroke-linejoin="round"/>
<path d="M20.825 6.69971H2.78604" stroke="#2F52A0" stroke-width="2" stroke-linecap="round" stroke-linejoin="round"/>
<path d="M33.2126 6.69971H27.8032" stroke="#2F52A0" stroke-width="2" stroke-linecap="round" stroke-linejoin="round"/>
<path d="M8.19667 18.0029C8.19667 18.4611 8.28692 18.9149 8.46227 19.3382C8.63762 19.7615 8.89464 20.1462 9.21865 20.4702C9.54265 20.7942 9.92731 21.0512 10.3506 21.2266C10.774 21.4019 11.2277 21.4922 11.6859 21.4922C12.1441 21.4922 12.5979 21.4019 13.0212 21.2266C13.4445 21.0512 13.8292 20.7942 14.1532 20.4702C14.4772 20.1462 14.7342 19.7615 14.9096 19.3382C15.0849 18.9149 15.1752 18.4611 15.1752 18.0029C15.1752 17.5447 15.0849 17.091 14.9096 16.6676C14.7342 16.2443 14.4772 15.8597 14.1532 15.5356C13.8292 15.2116 13.4445 14.9546 13.0212 14.7793C12.5979 14.6039 12.1441 14.5137 11.6859 14.5137C11.2277 14.5137 10.774 14.6039 10.3506 14.7793C9.92731 14.9546 9.54265 15.2116 9.21865 15.5356C8.89464 15.8597 8.63762 16.2443 8.46227 16.6676C8.28692 17.091 8.19667 17.5447 8.19667 18.0029Z" stroke="#2F52A0" stroke-width="2"/>
<path d="M20.8248 29.5019C20.8248 30.4274 21.1924 31.3149 21.8468 31.9692C22.5012 32.6236 23.3887 32.9912 24.3141 32.9912C25.2395 32.9912 26.127 32.6236 26.7814 31.9692C27.4357 31.3149 27.8033 30.4274 27.8033 29.5019C27.8033 28.5765 27.4357 27.689 26.7814 27.0347C26.127 26.3803 25.2395 26.0127 24.3141 26.0127C23.3887 26.0127 22.5012 26.3803 21.8468 27.0347C21.1924 27.689 20.8248 28.5765 20.8248 29.5019Z" stroke="#2F52A0" stroke-width="2"/>
<path d="M20.8248 6.5039C20.8248 7.42931 21.1924 8.31681 21.8468 8.97117C22.5012 9.62553 23.3887 9.99315 24.3141 9.99315C25.2395 9.99315 26.127 9.62553 26.7814 8.97117C27.4357 8.31681 27.8033 7.42931 27.8033 6.5039C27.8033 5.57849 27.4357 4.69099 26.7814 4.03663C26.127 3.38226 25.2395 3.01465 24.3141 3.01465C23.3887 3.01465 22.5012 3.38226 21.8468 4.03663C21.1924 4.69099 20.8248 5.57849 20.8248 6.5039Z" stroke="#2F52A0" stroke-width="2"/>
</svg>
