<svg width="40" height="40" viewBox="0 0 40 40" fill="none" xmlns="http://www.w3.org/2000/svg">
<path d="M33.0625 20H37.8125" stroke="#2F52A0" stroke-width="2" stroke-linecap="round" stroke-linejoin="round"/>
<path d="M2.1875 20H6.9375" stroke="#2F52A0" stroke-width="2" stroke-linecap="round" stroke-linejoin="round"/>
<path d="M20 2.1875V6.9375" stroke="#2F52A0" stroke-width="2" stroke-linecap="round" stroke-linejoin="round"/>
<path d="M20 33.0625V37.8125" stroke="#2F52A0" stroke-width="2" stroke-linecap="round" stroke-linejoin="round"/>
<path d="M30.6875 15.25H24.75V9.3125C24.75 8.68261 24.4998 8.07852 24.0544 7.63312C23.609 7.18772 23.0049 6.9375 22.375 6.9375H17.625C17.3131 6.9375 17.0043 6.99893 16.7161 7.11829C16.428 7.23764 16.1662 7.41258 15.9456 7.63312C15.7251 7.85366 15.5501 8.11548 15.4308 8.40363C15.3114 8.69178 15.25 9.00061 15.25 9.3125V15.25H9.3125C8.68261 15.25 8.07852 15.5002 7.63312 15.9456C7.18772 16.391 6.9375 16.9951 6.9375 17.625V22.375C6.9375 23.0049 7.18772 23.609 7.63312 24.0544C8.07852 24.4998 8.68261 24.75 9.3125 24.75H15.25V30.6875C15.25 31.3174 15.5002 31.9215 15.9456 32.3669C16.391 32.8123 16.9951 33.0625 17.625 33.0625H22.375C23.0049 33.0625 23.609 32.8123 24.0544 32.3669C24.4998 31.9215 24.75 31.3174 24.75 30.6875V24.75H30.6875C31.3174 24.75 31.9215 24.4998 32.3669 24.0544C32.8123 23.609 33.0625 23.0049 33.0625 22.375V17.625C33.0625 16.9951 32.8123 16.391 32.3669 15.9456C31.9215 15.5002 31.3174 15.25 30.6875 15.25Z" stroke="#2F52A0" stroke-width="2" stroke-linecap="round" stroke-linejoin="round"/>
</svg>
