<svg width="40" height="40" viewBox="0 0 40 40" fill="none" xmlns="http://www.w3.org/2000/svg">
<path d="M22.375 21.1875C22.375 20.8726 22.2499 20.5705 22.0272 20.3478C21.8045 20.1251 21.5024 20 21.1875 20H3.375C3.06006 20 2.75801 20.1251 2.53531 20.3478C2.31261 20.5705 2.1875 20.8726 2.1875 21.1875V36.625C2.1875 36.9399 2.31261 37.242 2.53531 37.4647C2.75801 37.6874 3.06006 37.8125 3.375 37.8125H6.08092C6.33026 37.8124 6.57326 37.7339 6.77557 37.5882C6.97787 37.4424 7.12923 37.2367 7.20825 37.0003L7.85425 35.0622C7.93327 34.8258 8.08463 34.6201 8.28693 34.4743C8.48924 34.3286 8.73224 34.2501 8.98158 34.25H15.5809C15.8303 34.2501 16.0733 34.3286 16.2756 34.4743C16.4779 34.6201 16.6292 34.8258 16.7083 35.0622L17.3542 37.0003C17.4333 37.2367 17.5846 37.4424 17.7869 37.5882C17.9892 37.7339 18.2322 37.8124 18.4816 37.8125H21.1875C21.5024 37.8125 21.8045 37.6874 22.0272 37.4647C22.2499 37.242 22.375 36.9399 22.375 36.625V21.1875Z" stroke="#2F52A0" stroke-width="2" stroke-linecap="round" stroke-linejoin="round"/>
<path d="M5.75 20L6.9375 24.75H17.625L18.8125 20" stroke="#2F52A0" stroke-width="2" stroke-linecap="round" stroke-linejoin="round"/>
<path d="M9.3125 29.5H15.25" stroke="#2F52A0" stroke-width="2" stroke-linecap="round" stroke-linejoin="round"/>
<path d="M28.3125 2.1875H35.4375C35.4375 2.1875 37.8125 2.1875 37.8125 4.5625V18.8125C37.8125 18.8125 37.8125 21.1875 35.4375 21.1875H28.3125C28.3125 21.1875 25.9375 21.1875 25.9375 18.8125V4.5625C25.9375 4.5625 25.9375 2.1875 28.3125 2.1875Z" stroke="#2F52A0" stroke-width="2" stroke-linecap="round" stroke-linejoin="round"/>
<path d="M25.9375 16.4375H37.8125" stroke="#2F52A0" stroke-width="2" stroke-linecap="round" stroke-linejoin="round"/>
<path d="M31.875 21.1875V28.3125C31.875 28.9424 31.6248 29.5465 31.1794 29.9919C30.734 30.4373 30.1299 30.6875 29.5 30.6875H22.375" stroke="#2F52A0" stroke-width="2" stroke-linecap="round" stroke-linejoin="round"/>
</svg>
