<svg width="40" height="40" viewBox="0 0 40 40" fill="none" xmlns="http://www.w3.org/2000/svg">
<path d="M2.1875 35.4375H37.8125" stroke="#2F52A0" stroke-width="2" stroke-linecap="round" stroke-linejoin="round"/>
<path d="M10.5 18.8125H5.75C5.43506 18.8125 5.13301 18.9376 4.91031 19.1603C4.68761 19.383 4.5625 19.6851 4.5625 20V35.4375H11.6875V20C11.6875 19.6851 11.5624 19.383 11.3397 19.1603C11.117 18.9376 10.8149 18.8125 10.5 18.8125Z" stroke="#2F52A0" stroke-width="2" stroke-linecap="round" stroke-linejoin="round"/>
<path d="M22.375 4.5625H17.625C17.3101 4.5625 17.008 4.68761 16.7853 4.91031C16.5626 5.13301 16.4375 5.43506 16.4375 5.75V35.4375H23.5625V5.75C23.5625 5.43506 23.4374 5.13301 23.2147 4.91031C22.992 4.68761 22.6899 4.5625 22.375 4.5625Z" stroke="#2F52A0" stroke-width="2" stroke-linecap="round" stroke-linejoin="round"/>
<path d="M34.25 11.6875H29.5C29.1851 11.6875 28.883 11.8126 28.6603 12.0353C28.4376 12.258 28.3125 12.5601 28.3125 12.875V35.4375H35.4375V12.875C35.4375 12.5601 35.3124 12.258 35.0897 12.0353C34.867 11.8126 34.5649 11.6875 34.25 11.6875Z" stroke="#2F52A0" stroke-width="2" stroke-linecap="round" stroke-linejoin="round"/>
</svg>
