<svg width="36" height="36" viewBox="0 0 36 36" fill="none" xmlns="http://www.w3.org/2000/svg">
<path d="M18.9761 14.813H8.43889C6.74813 14.813 5.12663 14.1413 3.93109 12.9458C2.73553 11.7502 2.06389 10.1287 2.06389 8.43798C2.06389 6.74723 2.73553 5.12573 3.93109 3.93018C5.12663 2.73464 6.74813 2.06299 8.43889 2.06299H25.4389C26.6635 2.06291 27.8621 2.41552 28.8916 3.07868C29.9211 3.74182 30.7378 4.68744 31.244 5.80246C31.7503 6.91747 31.9247 8.15471 31.7463 9.36622C31.568 10.5777 31.0445 11.7123 30.2386 12.6341" stroke="#2F52A0" stroke-width="2" stroke-linecap="round" stroke-linejoin="round"/>
<path d="M12.6889 27.5629H8.43889C6.74813 27.5629 5.12663 26.8913 3.93109 25.6958C2.73553 24.5002 2.06389 22.8787 2.06389 21.1879C2.06389 19.4973 2.73553 17.8758 3.93109 16.6802C5.12663 15.4847 6.74813 14.813 8.43889 14.813H18" stroke="#2F52A0" stroke-width="2" stroke-linecap="round" stroke-linejoin="round"/>
<path d="M15.8764 8.43799H25.4389" stroke="#2F52A0" stroke-width="2" stroke-linecap="round" stroke-linejoin="round"/>
<path d="M25.4389 26.5005C26.6125 26.5005 27.5639 25.5492 27.5639 24.3755C27.5639 23.2019 26.6125 22.2505 25.4389 22.2505C24.2652 22.2505 23.3139 23.2019 23.3139 24.3755C23.3139 25.5492 24.2652 26.5005 25.4389 26.5005Z" stroke="#2F52A0" stroke-width="2" stroke-linecap="round" stroke-linejoin="round"/>
<path d="M27.2438 16.159L27.8699 18.2174C27.9733 18.5591 28.2026 18.8487 28.5112 19.0277C28.8199 19.2069 29.1853 19.2621 29.5331 19.1822L31.6184 18.6991C32.0138 18.6094 32.4276 18.6488 32.7989 18.8116C33.1702 18.9743 33.4796 19.2519 33.6815 19.6035C33.8835 19.9551 33.9674 20.3621 33.9209 20.7649C33.8745 21.1676 33.6999 21.5449 33.4233 21.8412L31.9641 23.4152C31.7204 23.6772 31.5848 24.0219 31.5848 24.3799C31.5848 24.7379 31.7204 25.0826 31.9641 25.3447L33.4233 26.9186C33.6999 27.2149 33.8745 27.5922 33.9209 27.995C33.9674 28.3977 33.8835 28.8047 33.6815 29.1563C33.4796 29.5078 33.1702 29.7855 32.7989 29.9483C32.4276 30.111 32.0138 30.1504 31.6184 30.0607L29.5331 29.5777C29.1853 29.4978 28.8199 29.5529 28.5112 29.7319C28.2026 29.9111 27.9733 30.2007 27.8699 30.5424L27.2438 32.5923C27.1274 32.9805 26.889 33.3209 26.5639 33.5629C26.2388 33.8048 25.8442 33.9355 25.4389 33.9355C25.0336 33.9355 24.6392 33.8048 24.3141 33.5629C23.989 33.3209 23.7505 32.9805 23.6341 32.5923L23.0065 30.5339C22.9035 30.1923 22.6746 29.9028 22.366 29.7236C22.0575 29.5445 21.6925 29.4893 21.3448 29.5692L19.258 30.0522C18.8626 30.1419 18.4489 30.1025 18.0776 29.9398C17.7063 29.777 17.3969 29.4993 17.1949 29.1478C16.993 28.7962 16.9092 28.3892 16.9556 27.9865C17.0021 27.5837 17.1765 27.2064 17.4532 26.9101L18.9138 25.3362C19.1576 25.0741 19.293 24.7294 19.293 24.3714C19.293 24.0134 19.1576 23.6687 18.9138 23.4067L17.4532 21.8327C17.1765 21.5364 17.0021 21.1591 16.9556 20.7564C16.9092 20.3536 16.993 19.9466 17.1949 19.595C17.3969 19.2434 17.7063 18.9658 18.0776 18.8031C18.4489 18.6403 18.8626 18.6009 19.258 18.6906L21.3448 19.1737C21.6925 19.2536 22.0575 19.1983 22.366 19.0192C22.6746 18.84 22.9035 18.5505 23.0065 18.2089L23.6341 16.1505C23.7514 15.7625 23.9907 15.4227 24.3164 15.1815C24.6421 14.9403 25.0369 14.8106 25.4422 14.8115C25.8473 14.8125 26.2416 14.9441 26.5662 15.1869C26.8907 15.4295 27.1283 15.7705 27.2438 16.159Z" stroke="#2F52A0" stroke-width="2" stroke-linecap="round" stroke-linejoin="round"/>
<path d="M8.43889 8.96924C8.14548 8.96924 7.90764 8.73139 7.90764 8.43799C7.90764 8.1446 8.14548 7.90674 8.43889 7.90674" stroke="#2F52A0" stroke-width="2"/>
<path d="M8.43889 8.96924C8.73228 8.96924 8.97014 8.73139 8.97014 8.43799C8.97014 8.1446 8.73228 7.90674 8.43889 7.90674" stroke="#2F52A0" stroke-width="2"/>
<path d="M8.43889 21.7192C8.14548 21.7192 7.90764 21.4815 7.90764 21.188C7.90764 20.8946 8.14548 20.6567 8.43889 20.6567" stroke="#2F52A0" stroke-width="2"/>
<path d="M8.43889 21.7192C8.73228 21.7192 8.97014 21.4815 8.97014 21.188C8.97014 20.8946 8.73228 20.6567 8.43889 20.6567" stroke="#2F52A0" stroke-width="2"/>
</svg>
