<svg width="40" height="40" viewBox="0 0 40 40" fill="none" xmlns="http://www.w3.org/2000/svg">
<path d="M35.1994 37.2854V31.7415C35.1992 29.8703 34.5353 28.0599 33.3256 26.6323C32.1161 25.2046 30.4392 24.2523 28.5935 23.9449L23.3421 23.0674V11.2102C23.3421 10.162 22.9257 9.15666 22.1845 8.41544C21.4434 7.67423 20.4379 7.25781 19.3898 7.25781C18.3415 7.25781 17.3362 7.67423 16.595 8.41544C15.8538 9.15666 15.4374 10.162 15.4374 11.2102V28.996L12.344 27.444C11.7659 27.1552 11.1304 27.0001 10.4844 26.9896C9.83832 26.9793 9.19818 27.1142 8.61121 27.3843C8.02423 27.6545 7.50539 28.0528 7.09296 28.5503C6.68052 29.0476 6.38504 29.6312 6.22829 30.2581C6.02713 31.0594 6.0605 31.9017 6.32444 32.6847C6.58837 33.4677 7.07176 34.1582 7.71702 34.6742L10.9167 37.2854" stroke="#2F52A0" stroke-width="2" stroke-linecap="round" stroke-linejoin="round"/>
<path d="M30.7766 7.1378L35.1991 2.71533" stroke="#2F52A0" stroke-width="2" stroke-linecap="round" stroke-linejoin="round"/>
<path d="M30.6079 15.3931L35.1994 19.9846" stroke="#2F52A0" stroke-width="2" stroke-linecap="round" stroke-linejoin="round"/>
<path d="M9.34313 7.25788L4.80058 2.71533" stroke="#2F52A0" stroke-width="2" stroke-linecap="round" stroke-linejoin="round"/>
<path d="M9.36783 15.4175L4.80078 19.9845" stroke="#2F52A0" stroke-width="2" stroke-linecap="round" stroke-linejoin="round"/>
<path d="M8.77552 2.71484H4.80086V6.68949" stroke="#2F52A0" stroke-width="2" stroke-linecap="round" stroke-linejoin="round"/>
<path d="M4.80086 16.0103V19.9849H8.77552" stroke="#2F52A0" stroke-width="2" stroke-linecap="round" stroke-linejoin="round"/>
<path d="M31.2247 19.9849H35.1994V16.0103" stroke="#2F52A0" stroke-width="2" stroke-linecap="round" stroke-linejoin="round"/>
<path d="M35.1994 6.68949V2.71484H31.2247" stroke="#2F52A0" stroke-width="2" stroke-linecap="round" stroke-linejoin="round"/>
</svg>
