<svg width="36" height="36" viewBox="0 0 36 36" fill="none" xmlns="http://www.w3.org/2000/svg">
<path d="M26.2733 11.1858C25.1541 6.51083 21.8675 3.125 18 3.125C13.2116 3.125 9.31582 8.31 9.31582 14.6992C9.27458 17.4582 10.059 20.1667 11.5683 22.4767" stroke="#2F52A0" stroke-width="2" stroke-linecap="round" stroke-linejoin="round"/>
<path d="M10.4916 24.5451C10.4916 25.2177 10.7588 25.8627 11.2344 26.3382C11.7099 26.8138 12.3549 27.0809 13.0275 27.0809C13.7 27.0809 14.345 26.8138 14.8206 26.3382C15.2961 25.8627 15.5633 25.2177 15.5633 24.5451C15.5633 23.8726 15.2961 23.2276 14.8206 22.752C14.345 22.2764 13.7 22.0093 13.0275 22.0093C12.3549 22.0093 11.7099 22.2764 11.2344 22.752C10.7588 23.2276 10.4916 23.8726 10.4916 24.5451Z" stroke="#2F52A0" stroke-width="2" stroke-linecap="round" stroke-linejoin="round"/>
<path d="M5.80248 18C2.31748 21.3008 1.02832 25.8342 2.96915 29.1917C5.36332 33.3425 11.795 34.1075 17.3341 30.92C19.7598 29.5791 21.7321 27.5475 23.0008 25.0833" stroke="#2F52A0" stroke-width="2" stroke-linecap="round" stroke-linejoin="round"/>
<path d="M21.4708 22.76C21.4708 23.4325 21.738 24.0775 22.2136 24.5531C22.6891 25.0286 23.3341 25.2958 24.0067 25.2958C24.6792 25.2958 25.3242 25.0286 25.7998 24.5531C26.2753 24.0775 26.5425 23.4325 26.5425 22.76C26.5425 22.4269 26.4769 22.0972 26.3495 21.7895C26.222 21.4819 26.0352 21.2023 25.7998 20.9668C25.5643 20.7314 25.2847 20.5446 24.9771 20.4172C24.6694 20.2897 24.3397 20.2241 24.0067 20.2241C23.6736 20.2241 23.3439 20.2897 23.0362 20.4172C22.7286 20.5446 22.449 20.7314 22.2136 20.9668C21.9781 21.2023 21.7913 21.4819 21.6639 21.7895C21.5364 22.0972 21.4708 22.4269 21.4708 22.76Z" stroke="#2F52A0" stroke-width="2" stroke-linecap="round" stroke-linejoin="round"/>
<path d="M21.9241 32.3086C26.5283 33.7252 31.1041 32.5211 33.0308 29.1777C35.4391 25.0127 32.8891 19.0627 27.3641 15.8611C24.9913 14.456 22.2553 13.7856 19.5016 13.9344" stroke="#2F52A0" stroke-width="2" stroke-linecap="round" stroke-linejoin="round"/>
<path d="M14.43 14.1608C14.43 14.8334 14.6972 15.4784 15.1727 15.9539C15.6483 16.4295 16.2933 16.6967 16.9658 16.6967C17.6384 16.6967 18.2834 16.4295 18.7589 15.9539C19.2345 15.4784 19.5017 14.8334 19.5017 14.1608C19.5017 13.4883 19.2345 12.8433 18.7589 12.3677C18.2834 11.8922 17.6384 11.625 16.9658 11.625C16.2933 11.625 15.6483 11.8922 15.1727 12.3677C14.6972 12.8433 14.43 13.4883 14.43 14.1608Z" stroke="#2F52A0" stroke-width="2" stroke-linecap="round" stroke-linejoin="round"/>
</svg>
