<svg width="36" height="36" viewBox="0 0 36 36" fill="none" xmlns="http://www.w3.org/2000/svg">
<path d="M18 13.0828V7.72925" stroke="#2F52A0" stroke-width="2" stroke-miterlimit="10"/>
<path d="M18 7.72917C19.5649 7.72917 20.8333 6.46064 20.8333 4.89583C20.8333 3.33103 19.5649 2.0625 18 2.0625C16.4352 2.0625 15.1667 3.33103 15.1667 4.89583C15.1667 6.46064 16.4352 7.72917 18 7.72917Z" stroke="#2F52A0" stroke-width="2" stroke-miterlimit="10"/>
<path d="M12.6861 14.8891L9.15292 13.0417" stroke="#2F52A0" stroke-width="2" stroke-miterlimit="10"/>
<path d="M6.69925 14.4584C8.26406 14.4584 9.53259 13.1899 9.53259 11.6251C9.53259 10.0603 8.26406 8.79175 6.69925 8.79175C5.13445 8.79175 3.86592 10.0603 3.86592 11.6251C3.86592 13.1899 5.13445 14.4584 6.69925 14.4584Z" stroke="#2F52A0" stroke-width="2" stroke-miterlimit="10"/>
<path d="M23.3309 14.8806L26.8471 13.0417" stroke="#2F52A0" stroke-width="2" stroke-miterlimit="10"/>
<path d="M29.3008 14.4584C30.8656 14.4584 32.1341 13.1899 32.1341 11.6251C32.1341 10.0603 30.8656 8.79175 29.3008 8.79175C27.7359 8.79175 26.4674 10.0603 26.4674 11.6251C26.4674 13.1899 27.7359 14.4584 29.3008 14.4584Z" stroke="#2F52A0" stroke-width="2" stroke-miterlimit="10"/>
<path d="M18 23.7092V28.2709" stroke="#2F52A0" stroke-width="2" stroke-miterlimit="10"/>
<path d="M18 33.9374C19.5649 33.9374 20.8333 32.6689 20.8333 31.1041C20.8333 29.5392 19.5649 28.2708 18 28.2708C16.4352 28.2708 15.1667 29.5392 15.1667 31.1041C15.1667 32.6689 16.4352 33.9374 18 33.9374Z" stroke="#2F52A0" stroke-width="2" stroke-miterlimit="10"/>
<path d="M12.1265 21.4822L9.15292 23.0419" stroke="#2F52A0" stroke-width="2" stroke-miterlimit="10"/>
<path d="M6.69925 27.2919C8.26406 27.2919 9.53259 26.0233 9.53259 24.4586C9.53259 22.8937 8.26406 21.6252 6.69925 21.6252C5.13445 21.6252 3.86592 22.8937 3.86592 24.4586C3.86592 26.0233 5.13445 27.2919 6.69925 27.2919Z" stroke="#2F52A0" stroke-width="2" stroke-miterlimit="10"/>
<path d="M23.8919 21.4907L26.8471 23.042" stroke="#2F52A0" stroke-width="2" stroke-miterlimit="10"/>
<path d="M29.3008 27.2919C30.8656 27.2919 32.1341 26.0233 32.1341 24.4586C32.1341 22.8937 30.8656 21.6252 29.3008 21.6252C27.7359 21.6252 26.4674 22.8937 26.4674 24.4586C26.4674 26.0233 27.7359 27.2919 29.3008 27.2919Z" stroke="#2F52A0" stroke-width="2" stroke-miterlimit="10"/>
<path d="M26.2988 17.7634C26.4388 17.9448 26.5146 18.1675 26.5146 18.3967C26.5146 18.6258 26.4388 18.8485 26.2988 19.0299C25.2236 20.4381 22.2712 23.7049 18.0142 23.7049C13.7571 23.7049 10.8033 20.4339 9.7295 19.0299C9.59004 18.8482 9.51443 18.6256 9.51443 18.3967C9.51443 18.1676 9.59004 17.9451 9.7295 17.7634C10.8047 16.3553 13.7571 13.0884 18.0142 13.0884C22.2712 13.0884 25.225 16.3539 26.2988 17.7634Z" stroke="#2F52A0" stroke-width="2" stroke-linecap="round" stroke-linejoin="round"/>
<path d="M18 16.2717C18.4203 16.2717 18.8312 16.3964 19.1807 16.6299C19.53 16.8635 19.8024 17.1953 19.9632 17.5836C20.124 17.9719 20.1662 18.3991 20.0842 18.8114C20.0022 19.2235 19.7997 19.6022 19.5027 19.8994C19.2054 20.1966 18.8268 20.3989 18.4145 20.4809C18.0024 20.563 17.5751 20.5209 17.1868 20.36C16.7985 20.1992 16.4666 19.9269 16.2331 19.5774C15.9997 19.2279 15.875 18.8171 15.875 18.3967C15.8743 18.1175 15.9287 17.8408 16.0352 17.5827C16.1418 17.3246 16.2983 17.09 16.4958 16.8925C16.6933 16.695 16.9277 16.5385 17.186 16.432C17.4441 16.3254 17.7208 16.271 18 16.2717Z" stroke="#2F52A0" stroke-width="2" stroke-linecap="round" stroke-linejoin="round"/>
</svg>
