<svg width="36" height="36" viewBox="0 0 36 36" fill="none" xmlns="http://www.w3.org/2000/svg">
<path d="M12.6875 33.9375H3.125C2.84321 33.9375 2.57296 33.8256 2.3737 33.6263C2.17444 33.427 2.0625 33.1568 2.0625 32.875V25.4375" stroke="#2F52A0" stroke-width="2" stroke-linecap="round" stroke-linejoin="round"/>
<path d="M12.6875 25.4375H2.0625V16.9375" stroke="#2F52A0" stroke-width="2" stroke-linecap="round" stroke-linejoin="round"/>
<path d="M19.0625 16.9375H2.0625V9.5C2.0625 9.21821 2.17444 8.94796 2.3737 8.7487C2.57296 8.54944 2.84321 8.4375 3.125 8.4375H18C18.2818 8.4375 18.552 8.54944 18.7513 8.7487C18.9506 8.94796 19.0625 9.21821 19.0625 9.5V16.9375Z" stroke="#2F52A0" stroke-width="2" stroke-linecap="round" stroke-linejoin="round"/>
<path d="M3.125 8.4375V5.25C3.125 4.96821 3.23694 4.69796 3.4362 4.4987C3.63546 4.29944 3.90571 4.1875 4.1875 4.1875H7.375C7.65679 4.1875 7.92704 4.29944 8.1263 4.4987C8.32556 4.69796 8.4375 4.96821 8.4375 5.25V8.4375" stroke="#2F52A0" stroke-width="2" stroke-linecap="round" stroke-linejoin="round"/>
<path d="M12.6875 8.4375V5.25C12.6875 4.96821 12.7994 4.69796 12.9987 4.4987C13.198 4.29944 13.4682 4.1875 13.75 4.1875H16.9375C17.2193 4.1875 17.4895 4.29944 17.6888 4.4987C17.8881 4.69796 18 4.96821 18 5.25V8.4375" stroke="#2F52A0" stroke-width="2" stroke-linecap="round" stroke-linejoin="round"/>
<path d="M18 25.4375V22.25C18 21.9682 18.1119 21.698 18.3112 21.4987C18.5105 21.2994 18.7807 21.1875 19.0625 21.1875H22.25C22.5318 21.1875 22.802 21.2994 23.0013 21.4987C23.2006 21.698 23.3125 21.9682 23.3125 22.25V25.4375" stroke="#2F52A0" stroke-width="2" stroke-linecap="round" stroke-linejoin="round"/>
<path d="M27.5625 25.4375V22.25C27.5625 21.9682 27.6744 21.698 27.8737 21.4987C28.073 21.2994 28.3432 21.1875 28.625 21.1875H31.8125C32.0943 21.1875 32.3645 21.2994 32.5638 21.4987C32.7631 21.698 32.875 21.9682 32.875 22.25V25.4375" stroke="#2F52A0" stroke-width="2" stroke-linecap="round" stroke-linejoin="round"/>
<path d="M18 25.4375H32.875C32.875 25.4375 33.9375 25.4375 33.9375 26.5V32.875C33.9375 32.875 33.9375 33.9375 32.875 33.9375H18C18 33.9375 16.9375 33.9375 16.9375 32.875V26.5C16.9375 26.5 16.9375 25.4375 18 25.4375Z" stroke="#2F52A0" stroke-width="2" stroke-linecap="round" stroke-linejoin="round"/>
</svg>
