<svg width="36" height="36" viewBox="0 0 36 36" fill="none" xmlns="http://www.w3.org/2000/svg">
<path d="M2.0625 5.25C2.0625 6.09538 2.39832 6.90613 2.9961 7.5039C3.59387 8.10168 4.40462 8.4375 5.25 8.4375C6.09538 8.4375 6.90613 8.10168 7.5039 7.5039C8.10168 6.90613 8.4375 6.09538 8.4375 5.25C8.4375 4.40462 8.10168 3.59387 7.5039 2.9961C6.90613 2.39832 6.09538 2.0625 5.25 2.0625C4.40462 2.0625 3.59387 2.39832 2.9961 2.9961C2.39832 3.59387 2.0625 4.40462 2.0625 5.25Z" stroke="#2F52A0" stroke-width="2" stroke-linecap="round" stroke-linejoin="round"/>
<path d="M14.8125 5.25C14.8125 6.09538 15.1483 6.90613 15.7461 7.5039C16.3439 8.10168 17.1546 8.4375 18 8.4375C18.8454 8.4375 19.6561 8.10168 20.2539 7.5039C20.8517 6.90613 21.1875 6.09538 21.1875 5.25C21.1875 4.40462 20.8517 3.59387 20.2539 2.9961C19.6561 2.39832 18.8454 2.0625 18 2.0625C17.1546 2.0625 16.3439 2.39832 15.7461 2.9961C15.1483 3.59387 14.8125 4.40462 14.8125 5.25Z" stroke="#2F52A0" stroke-width="2" stroke-linecap="round" stroke-linejoin="round"/>
<path d="M14.8125 18C14.8125 18.8454 15.1483 19.6561 15.7461 20.2539C16.3439 20.8517 17.1546 21.1875 18 21.1875C18.8454 21.1875 19.6561 20.8517 20.2539 20.2539C20.8517 19.6561 21.1875 18.8454 21.1875 18C21.1875 17.1546 20.8517 16.3439 20.2539 15.7461C19.6561 15.1483 18.8454 14.8125 18 14.8125C17.1546 14.8125 16.3439 15.1483 15.7461 15.7461C15.1483 16.3439 14.8125 17.1546 14.8125 18Z" stroke="#2F52A0" stroke-width="2" stroke-linecap="round" stroke-linejoin="round"/>
<path d="M14.8125 30.75C14.8125 31.5954 15.1483 32.4061 15.7461 33.0039C16.3439 33.6017 17.1546 33.9375 18 33.9375C18.8454 33.9375 19.6561 33.6017 20.2539 33.0039C20.8517 32.4061 21.1875 31.5954 21.1875 30.75C21.1875 29.9046 20.8517 29.0939 20.2539 28.4961C19.6561 27.8983 18.8454 27.5625 18 27.5625C17.1546 27.5625 16.3439 27.8983 15.7461 28.4961C15.1483 29.0939 14.8125 29.9046 14.8125 30.75Z" stroke="#2F52A0" stroke-width="2" stroke-linecap="round" stroke-linejoin="round"/>
<path d="M8.4375 5.25H14.8125" stroke="#2F52A0" stroke-width="2" stroke-linecap="round" stroke-linejoin="round"/>
<path d="M2.0625 30.75C2.0625 31.5954 2.39832 32.4061 2.9961 33.0039C3.59387 33.6017 4.40462 33.9375 5.25 33.9375C6.09538 33.9375 6.90613 33.6017 7.5039 33.0039C8.10168 32.4061 8.4375 31.5954 8.4375 30.75C8.4375 29.9046 8.10168 29.0939 7.5039 28.4961C6.90613 27.8983 6.09538 27.5625 5.25 27.5625C4.40462 27.5625 3.59387 27.8983 2.9961 28.4961C2.39832 29.0939 2.0625 29.9046 2.0625 30.75Z" stroke="#2F52A0" stroke-width="2" stroke-linecap="round" stroke-linejoin="round"/>
<path d="M8.4375 30.75H14.8125" stroke="#2F52A0" stroke-width="2" stroke-linecap="round" stroke-linejoin="round"/>
<path d="M27.5625 18C27.5625 18.8454 27.8983 19.6561 28.4961 20.2539C29.0939 20.8517 29.9046 21.1875 30.75 21.1875C31.5954 21.1875 32.4061 20.8517 33.0039 20.2539C33.6017 19.6561 33.9375 18.8454 33.9375 18C33.9375 17.1546 33.6017 16.3439 33.0039 15.7461C32.4061 15.1483 31.5954 14.8125 30.75 14.8125C29.9046 14.8125 29.0939 15.1483 28.4961 15.7461C27.8983 16.3439 27.5625 17.1546 27.5625 18Z" stroke="#2F52A0" stroke-width="2" stroke-linecap="round" stroke-linejoin="round"/>
<path d="M21.1875 18H27.5625" stroke="#2F52A0" stroke-width="2" stroke-linecap="round" stroke-linejoin="round"/>
<path d="M18 21.1875V27.5625" stroke="#2F52A0" stroke-width="2" stroke-linecap="round" stroke-linejoin="round"/>
<path d="M18 8.4375V14.8125" stroke="#2F52A0" stroke-width="2" stroke-linecap="round" stroke-linejoin="round"/>
</svg>
