<svg width="36" height="36" viewBox="0 0 36 36" fill="none" xmlns="http://www.w3.org/2000/svg">
<path d="M3.47491 2.0625H21.8916C21.8916 2.0625 23.3082 2.0625 23.3082 3.47917V13.3958C23.3082 13.3958 23.3082 14.8125 21.8916 14.8125H3.47491C3.47491 14.8125 2.05824 14.8125 2.05824 13.3958V3.47917C2.05824 3.47917 2.05824 2.0625 3.47491 2.0625Z" stroke="#2F52A0" stroke-width="2" stroke-linecap="round" stroke-linejoin="round"/>
<path d="M4.90009 23.95C4.90009 23.2737 5.16875 22.6251 5.64696 22.1468C6.12518 21.6686 6.77378 21.4 7.45009 21.4H26.1189L28.9664 14.6963C29.1656 14.0499 29.6133 13.509 30.2112 13.1927C30.8091 12.8764 31.5082 12.8106 32.1546 13.0098C32.8011 13.2089 33.3419 13.6567 33.6582 14.2546C33.9745 14.8525 34.0403 15.5515 33.8412 16.198L30.4412 24.698C30.281 25.2199 29.9576 25.6767 29.5184 26.0011C29.0793 26.3254 28.5476 26.5003 28.0017 26.5H7.4515C7.11651 26.5002 6.78477 26.4343 6.47522 26.3063C6.16568 26.1782 5.8844 25.9904 5.64746 25.7536C5.41052 25.5168 5.22257 25.2356 5.09433 24.9261C4.96609 24.6167 4.90009 24.285 4.90009 23.95Z" stroke="#2F52A0" stroke-width="2" stroke-linecap="round" stroke-linejoin="round"/>
<path d="M21.1833 33.9375V26.5H15.5166V33.9375" stroke="#2F52A0" stroke-width="2" stroke-linecap="round" stroke-linejoin="round"/>
<path d="M5.59991 9.08926H8.45875C8.55775 9.08896 8.65468 9.06093 8.73857 9.00835C8.82245 8.95577 8.88992 8.88073 8.93333 8.79176L10.469 5.72751C10.5119 5.64146 10.5774 5.56867 10.6584 5.5169C10.7395 5.46513 10.833 5.43633 10.9291 5.43357C11.0253 5.43081 11.1203 5.45418 11.2042 5.50121C11.2881 5.54824 11.3576 5.61715 11.4054 5.70059L14.6637 11.4154C14.7112 11.4993 14.7806 11.5686 14.8646 11.6159C14.9485 11.6633 15.0437 11.6868 15.1401 11.6841C15.2364 11.6813 15.3301 11.6523 15.4112 11.6002C15.4923 11.5481 15.5576 11.475 15.6002 11.3885L17.1344 8.32001C17.179 8.23203 17.2471 8.15808 17.3311 8.10633C17.4151 8.05459 17.5118 8.02705 17.6104 8.02676H20.4749" stroke="#2F52A0" stroke-width="2" stroke-linecap="round" stroke-linejoin="round"/>
<path d="M10.5583 33.9375H26.1416" stroke="#2F52A0" stroke-width="2" stroke-linecap="round" stroke-linejoin="round"/>
</svg>
