<svg width="40" height="40" viewBox="0 0 40 40" fill="none" xmlns="http://www.w3.org/2000/svg">
<path d="M18.8759 36.625C14.4666 36.625 10.238 34.8734 7.1202 31.7556C4.00241 28.6379 2.25085 24.4092 2.25085 20C2.25085 15.5908 4.00241 11.3621 7.1202 8.24435C10.238 5.12656 14.4666 3.375 18.8759 3.375V36.625Z" stroke="#2F52A0" stroke-width="2" stroke-linecap="round" stroke-linejoin="round"/>
<path d="M18.8758 3.375C18.8758 3.375 10.5 8.125 10.5 20C10.5 31.875 18.8125 36.625 18.8125 36.625" stroke="#2F52A0" stroke-width="2" stroke-linecap="round" stroke-linejoin="round"/>
<path d="M18.8759 12.875H3.85004" stroke="#2F52A0" stroke-width="2" stroke-linecap="round" stroke-linejoin="round"/>
<path d="M18.8759 27.125H3.85004" stroke="#2F52A0" stroke-width="2" stroke-linecap="round" stroke-linejoin="round"/>
<path d="M27.4892 22.1694C27.4892 22.1694 30.5609 25.3361 33.5534 24.0219C39.6017 21.3778 36.435 13.2078 37.7492 9.5186C35.4981 9.19491 33.2024 9.40927 31.0502 10.1441C28.898 10.8789 26.9506 12.1133 25.3675 13.7461C22.7392 16.6436 23.5309 19.8103 27.4892 22.1694Z" stroke="#2F52A0" stroke-width="2" stroke-linecap="round" stroke-linejoin="round"/>
<path d="M30.64 16.833C30.64 16.833 25.6367 19.208 26.175 30.2755" stroke="#2F52A0" stroke-width="2" stroke-linecap="round" stroke-linejoin="round"/>
</svg>
