<svg width="50" height="50" viewBox="0 0 50 50" fill="none" xmlns="http://www.w3.org/2000/svg">
<path d="M41.4073 29.334L30.4427 31.5111" stroke="#2F52A0" stroke-width="2" stroke-linecap="round" stroke-linejoin="round"/>
<path d="M8.53334 29.3544H13.3823L20.3292 37.1523C20.5812 37.4291 20.8862 37.6523 21.2262 37.8087C21.5663 37.9651 21.9343 38.0515 22.3083 38.0628C26.3526 35.1518 30.1521 31.915 33.6688 28.3846C33.8865 27.7711 33.4708 27.1576 33.0948 26.643L28.1271 20.2305" stroke="#2F52A0" stroke-width="2" stroke-linecap="round" stroke-linejoin="round"/>
<path d="M22.1896 15.2624L21.4969 14.6686C20.7853 14.1623 19.9358 13.886 19.0625 13.877C18.5336 13.8758 18.0095 13.9766 17.5188 14.1738L8.67188 17.6968" stroke="#2F52A0" stroke-width="2" stroke-linecap="round" stroke-linejoin="round"/>
<path d="M2.73438 14.3125H6.69271C7.1913 14.3109 7.67213 14.4976 8.03906 14.8351C8.40599 15.1727 8.63199 15.6363 8.67188 16.1333V28.8396C8.62729 29.333 8.39924 29.7918 8.0328 30.1253C7.66635 30.4588 7.18816 30.6426 6.69271 30.6406H2.73438" stroke="#2F52A0" stroke-width="2" stroke-linecap="round" stroke-linejoin="round"/>
<path d="M47.2656 30.6406H43.3073C42.8118 30.6426 42.3336 30.4588 41.9672 30.1253C41.6008 29.7918 41.3727 29.333 41.3281 28.8396V16.1333C41.368 15.6363 41.594 15.1727 41.9609 14.8351C42.3279 14.4976 42.8087 14.3109 43.3073 14.3125H47.2656" stroke="#2F52A0" stroke-width="2" stroke-linecap="round" stroke-linejoin="round"/>
<path d="M30.4427 19.4585L23.6146 21.7147C22.8615 21.978 22.037 21.9493 21.3041 21.6341C20.5712 21.319 19.9832 20.7404 19.6563 20.0126C19.304 19.2545 19.2599 18.3892 19.5331 17.5991C19.8063 16.809 20.3755 16.1558 21.1208 15.7772L27.7708 12.4324C28.4204 12.1019 29.1399 11.9322 29.8688 11.9376C30.4083 11.9413 30.9434 12.0349 31.4521 12.2147L41.3479 15.8168" stroke="#2F52A0" stroke-width="2" stroke-linecap="round" stroke-linejoin="round"/>
</svg>
