<svg width="40" height="40" viewBox="0 0 40 40" fill="none" xmlns="http://www.w3.org/2000/svg">
<path d="M26.3334 4.42798C24.541 2.97805 22.3054 2.18701 20 2.18701C17.6946 2.18701 15.459 2.97805 13.6667 4.42798" stroke="#2F52A0" stroke-width="2" stroke-linecap="round" stroke-linejoin="round"/>
<path d="M16.3061 9.03535C17.3517 8.1901 18.6555 7.729 20 7.729C21.3445 7.729 22.6483 8.1901 23.6939 9.03535" stroke="#2F52A0" stroke-width="2" stroke-linecap="round" stroke-linejoin="round"/>
<path d="M5.35417 14.4585H34.6458C34.6458 14.4585 37.8125 14.4585 37.8125 17.6252V34.646C37.8125 34.646 37.8125 37.8127 34.6458 37.8127H5.35417C5.35417 37.8127 2.1875 37.8127 2.1875 34.646V17.6252C2.1875 17.6252 2.1875 14.4585 5.35417 14.4585Z" stroke="#2F52A0" stroke-width="2" stroke-linecap="round" stroke-linejoin="round"/>
<path d="M9.3125 32.271H11.6875" stroke="#2F52A0" stroke-width="2" stroke-linecap="round" stroke-linejoin="round"/>
<path d="M18.8125 32.271H21.1875" stroke="#2F52A0" stroke-width="2" stroke-linecap="round" stroke-linejoin="round"/>
<path d="M28.3125 32.271H30.6875" stroke="#2F52A0" stroke-width="2" stroke-linecap="round" stroke-linejoin="round"/>
<path d="M6.14581 23.9582C6.14581 24.798 6.47944 25.6035 7.07331 26.1973C7.66717 26.7912 8.47263 27.1248 9.31248 27.1248C10.1523 27.1248 10.9578 26.7912 11.5517 26.1973C12.1455 25.6035 12.4791 24.798 12.4791 23.9582C12.4791 23.1183 12.1455 22.3129 11.5517 21.719C10.9578 21.1251 10.1523 20.7915 9.31248 20.7915C8.47263 20.7915 7.66717 21.1251 7.07331 21.719C6.47944 22.3129 6.14581 23.1183 6.14581 23.9582Z" stroke="#2F52A0" stroke-width="2" stroke-linecap="round" stroke-linejoin="round"/>
<path d="M27.5208 23.9582C27.5208 24.374 27.6027 24.7858 27.7619 25.17C27.921 25.5542 28.1543 25.9033 28.4483 26.1973C28.7424 26.4914 29.0915 26.7246 29.4756 26.8838C29.8598 27.0429 30.2716 27.1248 30.6875 27.1248C31.1033 27.1248 31.5151 27.0429 31.8993 26.8838C32.2835 26.7246 32.6326 26.4914 32.9267 26.1973C33.2207 25.9033 33.454 25.5542 33.6131 25.17C33.7722 24.7858 33.8541 24.374 33.8541 23.9582C33.8541 23.5423 33.7722 23.1305 33.6131 22.7463C33.454 22.3621 33.2207 22.0131 32.9267 21.719C32.6326 21.4249 32.2835 21.1917 31.8993 21.0326C31.5151 20.8734 31.1033 20.7915 30.6875 20.7915C30.2716 20.7915 29.8598 20.8734 29.4756 21.0326C29.0915 21.1917 28.7424 21.4249 28.4483 21.719C28.1543 22.0131 27.921 22.3621 27.7619 22.7463C27.6027 23.1305 27.5208 23.5423 27.5208 23.9582Z" stroke="#2F52A0" stroke-width="2" stroke-linecap="round" stroke-linejoin="round"/>
<path d="M18.0208 19.2085H21.9792C21.9792 19.2085 23.5625 19.2085 23.5625 20.7918V26.3335C23.5625 26.3335 23.5625 27.9168 21.9792 27.9168H18.0208C18.0208 27.9168 16.4375 27.9168 16.4375 26.3335V20.7918C16.4375 20.7918 16.4375 19.2085 18.0208 19.2085Z" stroke="#2F52A0" stroke-width="2" stroke-linecap="round" stroke-linejoin="round"/>
</svg>
