<svg width="40" height="40" viewBox="0 0 40 40" fill="none" xmlns="http://www.w3.org/2000/svg">
<path d="M35.5879 15.1392C35.1272 11.5594 33.3782 8.27002 30.6681 5.88626C27.9579 3.5025 24.4722 2.18761 20.8629 2.1875C9.56109 2.1875 7.12117 11.4943 3.09001 21.9475C3.02097 22.1274 2.99671 22.3215 3.01932 22.5129C3.04192 22.7043 3.11072 22.8873 3.21978 23.0463C3.32884 23.2052 3.47489 23.3352 3.64536 23.4251C3.81583 23.5151 4.0056 23.5622 4.19834 23.5625H7.20667V28.3125C7.20667 29.5723 7.70712 30.7805 8.59792 31.6713C9.48871 32.5621 10.6969 33.0625 11.9567 33.0625H14.3317V37.8125" stroke="#2F52A0" stroke-width="2" stroke-linecap="round" stroke-linejoin="round"/>
<path d="M17.9891 18.2962C17.9891 19.346 18.4062 20.3529 19.1485 21.0952C19.8908 21.8375 20.8977 22.2546 21.9475 22.2546C22.9973 22.2546 24.0041 21.8375 24.7464 21.0952C25.4888 20.3529 25.9058 19.346 25.9058 18.2962C25.9058 17.2464 25.4888 16.2396 24.7464 15.4973C24.0041 14.7549 22.9973 14.3379 21.9475 14.3379C20.8977 14.3379 19.8908 14.7549 19.1485 15.4973C18.4062 16.2396 17.9891 17.2464 17.9891 18.2962Z" stroke="#2F52A0" stroke-width="2" stroke-linecap="round" stroke-linejoin="round"/>
<path d="M19.5725 21.4629L16.01 27.0046H12.8433" stroke="#2F52A0" stroke-width="2" stroke-linecap="round" stroke-linejoin="round"/>
<path d="M24.3241 15.1299H35.4074C35.8274 15.1299 36.2301 15.2967 36.527 15.5936C36.824 15.8906 36.9908 16.2933 36.9908 16.7132V19.8799C36.9908 20.2998 36.824 20.7025 36.527 20.9995C36.2301 21.2964 35.8274 21.4632 35.4074 21.4632H24.3241" stroke="#2F52A0" stroke-width="2" stroke-linecap="round" stroke-linejoin="round"/>
<path d="M30.9567 37.8124V27.8928C32.8485 26.1384 34.2523 23.9228 35.0306 21.4629" stroke="#2F52A0" stroke-width="2" stroke-linecap="round" stroke-linejoin="round"/>
</svg>
