<svg width="40" height="40" viewBox="0 0 40 40" fill="none" xmlns="http://www.w3.org/2000/svg">
<path d="M37.8125 31.721C37.8125 35.0313 35.1327 37.7109 31.8224 37.7109H8.17755C4.86726 37.7109 2.1875 35.0313 2.1875 31.721C2.1875 28.4106 4.86726 25.731 8.17755 25.731H31.8224C35.1327 25.8885 37.8125 28.4106 37.8125 31.721Z" stroke="#2F52A0" stroke-width="2" stroke-miterlimit="10" stroke-linecap="round" stroke-linejoin="round"/>
<path d="M9.47075 32.3546C9.12098 32.3546 8.83742 32.071 8.83742 31.7212C8.83742 31.3715 9.12098 31.0879 9.47075 31.0879" stroke="#2F52A0" stroke-width="2" stroke-linecap="round"/>
<path d="M9.47064 32.3546C9.82042 32.3546 10.104 32.071 10.104 31.7212C10.104 31.3715 9.82042 31.0879 9.47064 31.0879" stroke="#2F52A0" stroke-width="2" stroke-linecap="round"/>
<path d="M31.004 32.3546C30.6542 32.3546 30.3707 32.071 30.3707 31.7212C30.3707 31.3715 30.6542 31.0879 31.004 31.0879" stroke="#2F52A0" stroke-width="2" stroke-linecap="round"/>
<path d="M31.004 32.3546C31.3538 32.3546 31.6373 32.071 31.6373 31.7212C31.6373 31.3715 31.3538 31.0879 31.004 31.0879" stroke="#2F52A0" stroke-width="2" stroke-linecap="round"/>
<path d="M13.0897 25.7225L17.2064 10.9974C18.3147 7.1974 16.098 3.23907 12.298 2.28906L5.64801 26.1975" stroke="#2F52A0" stroke-width="2" stroke-miterlimit="10" stroke-linecap="round" stroke-linejoin="round"/>
<path d="M34.6458 26.4976L29.5 5.89188C29.025 4.15021 27.4417 3.20021 25.7 3.51688" stroke="#2F52A0" stroke-width="2" stroke-miterlimit="10" stroke-linecap="round" stroke-linejoin="round"/>
<path d="M30.2917 9.05859L27.2833 9.85026" stroke="#2F52A0" stroke-width="2" stroke-miterlimit="10" stroke-linecap="round" stroke-linejoin="round"/>
<path d="M31.6152 14.4121L28.55 15.2335" stroke="#2F52A0" stroke-width="2" stroke-miterlimit="10" stroke-linecap="round" stroke-linejoin="round"/>
<path d="M32.9759 19.9292L29.8167 20.7753" stroke="#2F52A0" stroke-width="2" stroke-miterlimit="10" stroke-linecap="round" stroke-linejoin="round"/>
</svg>
