<svg width="36" height="36" viewBox="0 0 36 36" fill="none" xmlns="http://www.w3.org/2000/svg">
<path d="M18 28.4833C23.7898 28.4833 28.4833 23.7897 28.4833 17.9999C28.4833 12.2101 23.7898 7.5166 18 7.5166C12.2102 7.5166 7.51666 12.2101 7.51666 17.9999C7.51666 23.7897 12.2102 28.4833 18 28.4833Z" stroke="#2F52A0" stroke-width="2" stroke-miterlimit="10" stroke-linecap="round" stroke-linejoin="round"/>
<path d="M18 22.3917C20.4255 22.3917 22.3917 20.4255 22.3917 18.0001C22.3917 15.5746 20.4255 13.6084 18 13.6084C15.5745 13.6084 13.6083 15.5746 13.6083 18.0001C13.6083 20.4255 15.5745 22.3917 18 22.3917Z" stroke="#2F52A0" stroke-width="2" stroke-miterlimit="10" stroke-linecap="round" stroke-linejoin="round"/>
<path d="M18 3.19583C17.6871 3.19583 17.4333 2.94212 17.4333 2.62917C17.4333 2.31621 17.6871 2.0625 18 2.0625" stroke="#2F52A0" stroke-width="2" stroke-miterlimit="10" stroke-linecap="round" stroke-linejoin="round"/>
<path d="M18 3.19583C18.3129 3.19583 18.5667 2.94212 18.5667 2.62917C18.5667 2.31621 18.3129 2.0625 18 2.0625" stroke="#2F52A0" stroke-width="2" stroke-miterlimit="10" stroke-linecap="round" stroke-linejoin="round"/>
<path d="M18 33.9375C17.6871 33.9375 17.4333 33.6838 17.4333 33.3709C17.4333 33.0579 17.6871 32.8042 18 32.8042" stroke="#2F52A0" stroke-width="2" stroke-miterlimit="10" stroke-linecap="round" stroke-linejoin="round"/>
<path d="M18 33.9375C18.3129 33.9375 18.5667 33.6838 18.5667 33.3709C18.5667 33.0579 18.3129 32.8042 18 32.8042" stroke="#2F52A0" stroke-width="2" stroke-miterlimit="10" stroke-linecap="round" stroke-linejoin="round"/>
<path d="M23.8822 4.36624C23.5692 4.36624 23.3155 4.11253 23.3155 3.79958C23.3155 3.48662 23.5692 3.23291 23.8822 3.23291" stroke="#2F52A0" stroke-width="2" stroke-miterlimit="10" stroke-linecap="round" stroke-linejoin="round"/>
<path d="M23.882 4.36624C24.1951 4.36624 24.4487 4.11253 24.4487 3.79958C24.4487 3.48662 24.1951 3.23291 23.882 3.23291" stroke="#2F52A0" stroke-width="2" stroke-miterlimit="10" stroke-linecap="round" stroke-linejoin="round"/>
<path d="M12.1178 4.36624C11.8049 4.36624 11.5511 4.11253 11.5511 3.79958C11.5511 3.48662 11.8049 3.23291 12.1178 3.23291" stroke="#2F52A0" stroke-width="2" stroke-miterlimit="10" stroke-linecap="round" stroke-linejoin="round"/>
<path d="M12.1177 4.36624C12.4307 4.36624 12.6844 4.11253 12.6844 3.79958C12.6844 3.48662 12.4307 3.23291 12.1177 3.23291" stroke="#2F52A0" stroke-width="2" stroke-miterlimit="10" stroke-linecap="round" stroke-linejoin="round"/>
<path d="M23.8822 32.7671C23.5692 32.7671 23.3155 32.5134 23.3155 32.2005C23.3155 31.8875 23.5692 31.6338 23.8822 31.6338" stroke="#2F52A0" stroke-width="2" stroke-miterlimit="10" stroke-linecap="round" stroke-linejoin="round"/>
<path d="M23.882 32.7671C24.1951 32.7671 24.4487 32.5134 24.4487 32.2005C24.4487 31.8875 24.1951 31.6338 23.882 31.6338" stroke="#2F52A0" stroke-width="2" stroke-miterlimit="10" stroke-linecap="round" stroke-linejoin="round"/>
<path d="M12.1178 32.7671C11.8049 32.7671 11.5511 32.5134 11.5511 32.2005C11.5511 31.8875 11.8049 31.6338 12.1178 31.6338" stroke="#2F52A0" stroke-width="2" stroke-miterlimit="10" stroke-linecap="round" stroke-linejoin="round"/>
<path d="M12.1177 32.7671C12.4307 32.7671 12.6844 32.5134 12.6844 32.2005C12.6844 31.8875 12.4307 31.6338 12.1177 31.6338" stroke="#2F52A0" stroke-width="2" stroke-miterlimit="10" stroke-linecap="round" stroke-linejoin="round"/>
<path d="M7.13118 29.4356C6.81821 29.4356 6.56451 29.1819 6.56451 28.8689C6.56451 28.556 6.81821 28.3022 7.13118 28.3022" stroke="#2F52A0" stroke-width="2" stroke-miterlimit="10" stroke-linecap="round" stroke-linejoin="round"/>
<path d="M7.13104 29.4356C7.44401 29.4356 7.69771 29.1819 7.69771 28.8689C7.69771 28.556 7.44401 28.3022 7.13104 28.3022" stroke="#2F52A0" stroke-width="2" stroke-miterlimit="10" stroke-linecap="round" stroke-linejoin="round"/>
<path d="M3.79945 24.4488C3.4865 24.4488 3.23279 24.195 3.23279 23.8821C3.23279 23.5692 3.4865 23.3154 3.79945 23.3154" stroke="#2F52A0" stroke-width="2" stroke-miterlimit="10" stroke-linecap="round" stroke-linejoin="round"/>
<path d="M3.79932 24.4488C4.11227 24.4488 4.36598 24.195 4.36598 23.8821C4.36598 23.5692 4.11227 23.3154 3.79932 23.3154" stroke="#2F52A0" stroke-width="2" stroke-miterlimit="10" stroke-linecap="round" stroke-linejoin="round"/>
<path d="M2.62917 18.5664C2.31621 18.5664 2.0625 18.3127 2.0625 17.9998C2.0625 17.6868 2.31621 17.4331 2.62917 17.4331" stroke="#2F52A0" stroke-width="2" stroke-miterlimit="10" stroke-linecap="round" stroke-linejoin="round"/>
<path d="M2.62909 18.5664C2.94205 18.5664 3.19576 18.3127 3.19576 17.9998C3.19576 17.6868 2.94205 17.4331 2.62909 17.4331" stroke="#2F52A0" stroke-width="2" stroke-miterlimit="10" stroke-linecap="round" stroke-linejoin="round"/>
<path d="M3.79952 12.6846C3.48656 12.6846 3.23285 12.4309 3.23285 12.118C3.23285 11.805 3.48656 11.5513 3.79952 11.5513" stroke="#2F52A0" stroke-width="2" stroke-miterlimit="10" stroke-linecap="round" stroke-linejoin="round"/>
<path d="M3.79938 12.6846C4.11233 12.6846 4.36604 12.4309 4.36604 12.118C4.36604 11.805 4.11233 11.5513 3.79938 11.5513" stroke="#2F52A0" stroke-width="2" stroke-miterlimit="10" stroke-linecap="round" stroke-linejoin="round"/>
<path d="M7.13112 7.69779C6.81816 7.69779 6.56445 7.44409 6.56445 7.13112C6.56445 6.81816 6.81816 6.56445 7.13112 6.56445" stroke="#2F52A0" stroke-width="2" stroke-miterlimit="10" stroke-linecap="round" stroke-linejoin="round"/>
<path d="M7.13098 7.69779C7.44395 7.69779 7.69766 7.44409 7.69766 7.13112C7.69766 6.81816 7.44395 6.56445 7.13098 6.56445" stroke="#2F52A0" stroke-width="2" stroke-miterlimit="10" stroke-linecap="round" stroke-linejoin="round"/>
<path d="M28.8685 29.4356C29.1815 29.4356 29.4352 29.1819 29.4352 28.8689C29.4352 28.556 29.1815 28.3022 28.8685 28.3022" stroke="#2F52A0" stroke-width="2" stroke-miterlimit="10" stroke-linecap="round" stroke-linejoin="round"/>
<path d="M28.8687 29.4356C28.5557 29.4356 28.302 29.1819 28.302 28.8689C28.302 28.556 28.5557 28.3022 28.8687 28.3022" stroke="#2F52A0" stroke-width="2" stroke-miterlimit="10" stroke-linecap="round" stroke-linejoin="round"/>
<path d="M32.2003 24.4488C32.5133 24.4488 32.7669 24.195 32.7669 23.8821C32.7669 23.5692 32.5133 23.3154 32.2003 23.3154" stroke="#2F52A0" stroke-width="2" stroke-miterlimit="10" stroke-linecap="round" stroke-linejoin="round"/>
<path d="M32.2004 24.4488C31.8875 24.4488 31.6337 24.195 31.6337 23.8821C31.6337 23.5692 31.8875 23.3154 32.2004 23.3154" stroke="#2F52A0" stroke-width="2" stroke-miterlimit="10" stroke-linecap="round" stroke-linejoin="round"/>
<path d="M33.3705 18.5664C33.6835 18.5664 33.9372 18.3127 33.9372 17.9998C33.9372 17.6868 33.6835 17.4331 33.3705 17.4331" stroke="#2F52A0" stroke-width="2" stroke-miterlimit="10" stroke-linecap="round" stroke-linejoin="round"/>
<path d="M33.3707 18.5664C33.0577 18.5664 32.804 18.3127 32.804 17.9998C32.804 17.6868 33.0577 17.4331 33.3707 17.4331" stroke="#2F52A0" stroke-width="2" stroke-miterlimit="10" stroke-linecap="round" stroke-linejoin="round"/>
<path d="M32.2003 12.6846C32.5132 12.6846 32.7669 12.4309 32.7669 12.118C32.7669 11.805 32.5132 11.5513 32.2003 11.5513" stroke="#2F52A0" stroke-width="2" stroke-miterlimit="10" stroke-linecap="round" stroke-linejoin="round"/>
<path d="M32.2004 12.6846C31.8875 12.6846 31.6337 12.4309 31.6337 12.118C31.6337 11.805 31.8875 11.5513 32.2004 11.5513" stroke="#2F52A0" stroke-width="2" stroke-miterlimit="10" stroke-linecap="round" stroke-linejoin="round"/>
<path d="M28.8687 7.69779C29.1816 7.69779 29.4353 7.44409 29.4353 7.13112C29.4353 6.81816 29.1816 6.56445 28.8687 6.56445" stroke="#2F52A0" stroke-width="2" stroke-miterlimit="10" stroke-linecap="round" stroke-linejoin="round"/>
<path d="M28.8687 7.69779C28.5557 7.69779 28.302 7.44409 28.302 7.13112C28.302 6.81816 28.5557 6.56445 28.8687 6.56445" stroke="#2F52A0" stroke-width="2" stroke-miterlimit="10" stroke-linecap="round" stroke-linejoin="round"/>
</svg>
