<?xml version="1.0" encoding="UTF-8"?>
<svg id="Layer_1" xmlns="http://www.w3.org/2000/svg" version="1.1" viewBox="0 0 174.33013 58.58938">
  <!-- Generator: Adobe Illustrator 30.1.0, SVG Export Plug-In . SVG Version: 2.1.1 Build 136)  -->
  <defs>
    <style>
      .st0 {
        fill: #fff;
      }
    </style>
  </defs>
  <path class="st0" d="M0,.94024h8.37509v19.86254h10.24686v6.68179H0V.94024Z"/>
  <path class="st0" d="M51.23507,13.96864c0,6.72097-3.94378,14.37782-14.34299,14.37782-10.84757,0-14.11664-8.03121-14.11664-14.07746,0-7.58285,4.69249-14.26899,14.26899-14.26899,10.47321,0,14.19064,7.6612,14.19064,13.96864ZM31.18535,14.22982c0,4.61849,1.88048,7.39567,5.85908,7.39567,3.37789,0,5.74155-2.66401,5.74155-7.65685,0-1.27542-.10882-2.44201-.48753-3.49107-1.27542-3.67825-4.50531-3.79143-5.25402-3.79143-3.00354,0-5.85908,2.0633-5.85908,7.54367Z"/>
  <path class="st0" d="M82.89469,20.65043c-.67471,1.27977-1.31459,2.48119-2.59001,3.7566-2.70319,2.66401-6.49461,3.9046-10.28604,3.9046-9.46333,0-13.74229-7.1345-13.74229-13.92946,0-7.1345,4.76649-14.38217,13.74229-14.38217,4.01778,0,7.84403,1.42777,10.62557,4.28331,1.12306,1.16224,1.64977,2.0633,2.2113,3.11672l-7.01697,3.49107c-.67906-1.57577-1.95448-4.39213-5.48473-4.39213-1.83695,0-3.00354.86189-3.56507,1.42342-1.9893,1.9153-1.9893,4.91884-1.9893,5.97226,0,3.93943,1.46259,7.65685,5.59355,7.65685,3.9046,0,5.06684-3.45189,5.3672-4.35296l7.1345,3.45189Z"/>
  <path class="st0" d="M148.98722.94024h13.21558c2.51601,0,4.91884.15235,6.53379.82706,3.53025,1.50177,4.58366,5.10602,4.58366,7.65685,0,1.01424-.11318,3.38225-2.02848,5.33237-1.05342,1.12742-2.17648,1.54095-3.41707,2.02848l6.45544,10.69957h-9.31098l-5.14084-9.35015h-2.48119v9.35015h-8.40991V.94024ZM157.39713,6.59201v6.19426h3.49542c1.38859,0,4.0526-.07835,4.0526-3.08189,0-3.03836-2.62919-3.11236-4.09178-3.11236h-3.45625Z"/>
  <polygon class="st0" points="129.52421 6.79932 142.09989 6.79932 142.09989 .94024 121.0789 .94024 121.0789 10.62555 129.52421 10.62555 129.52421 6.79932"/>
  <rect class="st0" x="129.52592" y="10.62555" width="11.74689" height="6.64697"/>
  <polygon class="st0" points="129.52421 21.73865 129.52421 17.27253 121.0789 17.27253 121.0789 27.48456 143.22733 27.48456 143.22733 21.73865 129.52421 21.73865"/>
  <g>
    <rect class="st0" x="104.67161" y=".94024" width="8.4491" height="9.68532"/>
    <rect class="st0" x="104.67161" y="17.27253" width="8.4491" height="10.21204"/>
    <polygon class="st0" points="96.67521 10.62555 96.67521 .94024 88.30448 .94024 88.30448 27.48456 96.67521 27.48456 96.67521 17.27253 104.67161 17.27253 104.67161 10.62555 96.67521 10.62555"/>
  </g>
  <path class="st0" d="M7.22314,58.58938h-1.6748v-16.1709H0v-1.47461h12.79688v1.47461h-5.57373v16.1709Z"/>
  <path class="st0" d="M32.8943,58.58938h-2.09912l-5.57373-7.82324h-4.14893v7.82324h-1.6748v-17.6709h4.94873c3.07422.02539,3.84912.02539,4.94873.40039,2.89941,1.02441,3.09961,3.79883,3.09961,4.67383,0,1.84961-.7998,2.87402-1.32471,3.39941-1.2749,1.19922-2.94922,1.2998-3.89893,1.37402l5.72314,7.82324ZM21.07253,49.31692h4.14893c1.1499,0,2.22461-.02539,2.97412-.1748,1.87451-.375,2.54932-1.7998,2.54932-3.22461,0-1.72461-.84961-3.02441-2.57422-3.37402-.5-.09961-.72461-.09961-2.94922-.125h-4.14893v6.89844Z"/>
  <path class="st0" d="M54.52507,58.58938h-1.8252l-2.02441-5.32324h-7.89795l-1.99951,5.32324h-1.87451l7.19824-17.64551h1.39941l7.02393,17.64551ZM50.17546,51.91653l-3.39893-8.99805-3.44922,8.99805h6.84814Z"/>
  <path class="st0" d="M60.89038,58.58938v-17.64551h4.69922c1.87402.02539,3.49902.02539,4.77344.52539,2.52441.99902,4.42383,4.12305,4.42383,8.24707,0,3.2998-1.19922,6.07422-3.14941,7.59863-1.59961,1.25-3.19922,1.27441-6.17285,1.27441h-4.57422ZM62.5896,57.09035h2.64941c1.4502,0,3.47461.02441,4.64941-.52539,1.69922-.77441,3.22363-3.24902,3.22363-6.77344,0-3.02441-1.19922-5.92285-3.34863-6.87305-.97461-.4248-1.9248-.4248-4.09863-.4248h-3.0752v14.59668Z"/>
  <path class="st0" d="M93.2959,58.58938h-12.14746v-17.64551h11.52246v1.5498h-9.84766v6.27344h8.92285v1.5498h-8.92285v6.72266h10.47266v1.5498Z"/>
  <metadata>
    <sfw xmlns="http://ns.adobe.com/SaveForWeb/1.0/">
      <slices/>
      <sliceSourceBounds x="333.78" y="-324.81" width="174.33" height="58.59" bottomLeftOrigin="true"/>
    </sfw>
  </metadata>
</svg>