<?xml version="1.0" encoding="UTF-8"?>
<svg id="Ebene_1" xmlns="http://www.w3.org/2000/svg" xmlns:xlink="http://www.w3.org/1999/xlink" version="1.1" viewBox="0 0 404.426 56.161">
  <!-- Generator: Adobe Illustrator 29.3.1, SVG Export Plug-In . SVG Version: 2.1.0 Build 151)  -->
  <defs>
    <style>
      .st0 {
        fill: #fff;
      }

      .st1 {
        fill: url(#Unbenannter_Verlauf_111);
      }

      .st2 {
        fill: url(#Unbenannter_Verlauf_11);
      }
    </style>
    <linearGradient id="Unbenannter_Verlauf_11" data-name="Unbenannter Verlauf 11" x1="135.869" y1="33.971" x2="198.26" y2="33.971" gradientUnits="userSpaceOnUse">
      <stop offset="0" stop-color="#3a5ba7"/>
      <stop offset=".75" stop-color="#fff"/>
    </linearGradient>
    <linearGradient id="Unbenannter_Verlauf_111" data-name="Unbenannter Verlauf 11" x1="249.344" y1="33.978" x2="328.483" y2="33.978" xlink:href="#Unbenannter_Verlauf_11"/>
  </defs>
  <path class="st0" d="M0,55.403L9.198,0h23.914c4.111,0,7.574.812,10.388,2.435,2.813,1.624,4.833,3.905,6.06,6.844,1.227,2.94,1.516,6.375.866,10.307-.649,4.004-2.088,7.453-4.315,10.348s-5.059,5.122-8.494,6.682c-3.436,1.561-7.281,2.34-11.538,2.34h-14.283l1.947-11.687h11.254c1.804,0,3.391-.312,4.762-.934,1.37-.622,2.479-1.505,3.327-2.651.848-1.145,1.397-2.511,1.65-4.099.252-1.587.14-2.944-.338-4.071-.479-1.127-1.29-1.993-2.435-2.597-1.146-.604-2.603-.906-4.369-.906h-5.303l-7.25,43.392H0Z"/>
  <path class="st0" d="M67.378,56.161c-4.51,0-8.22-.897-11.133-2.692-2.912-1.794-4.955-4.301-6.127-7.521-1.173-3.219-1.407-6.957-.703-11.213.703-4.256,2.173-7.994,4.409-11.213s5.113-5.726,8.63-7.521c3.517-1.794,7.538-2.691,12.065-2.691,4.49,0,8.192.897,11.104,2.691,2.913,1.795,4.96,4.301,6.142,7.521,1.181,3.219,1.42,6.957.717,11.213-.704,4.256-2.183,7.994-4.437,11.213-2.255,3.219-5.136,5.726-8.644,7.521s-7.517,2.692-12.024,2.692ZM69.217,45.124c1.299,0,2.484-.424,3.558-1.271s1.992-2.056,2.76-3.625c.766-1.569,1.329-3.436,1.69-5.6.36-2.182.415-4.053.162-5.613-.253-1.56-.775-2.764-1.569-3.611-.793-.848-1.839-1.271-3.138-1.271s-2.488.424-3.571,1.271c-1.082.848-2.001,2.052-2.759,3.611-.758,1.56-1.316,3.432-1.678,5.613-.36,2.165-.419,4.031-.176,5.6.244,1.569.767,2.777,1.569,3.625s1.854,1.271,3.151,1.271Z"/>
  <path class="st0" d="M98.686,55.403l-3.463-41.552h14.933l.542,25.321h.324l9.522-25.321h14.5l1.299,25.104h.324l8.765-25.104h14.934l-17.313,41.552h-16.123l-2.165-22.291h-.433l-9.522,22.291h-16.123Z"/>
  <path class="st0" d="M174.886,56.161c-4.437,0-8.116-.853-11.038-2.557-2.921-1.705-4.978-4.157-6.167-7.358-1.19-3.201-1.407-7.038-.649-11.511.721-4.292,2.213-8.043,4.477-11.254,2.264-3.21,5.122-5.708,8.576-7.494,3.453-1.785,7.326-2.678,11.619-2.678,3.138,0,5.893.487,8.264,1.46,2.372.974,4.306,2.39,5.803,4.248s2.512,4.098,3.044,6.722c.531,2.624.527,5.586-.014,8.887l-.541,3.463h-39.193l1.299-8.224h25.449c.181-1.19.067-2.241-.338-3.151-.406-.911-1.046-1.623-1.921-2.137s-1.925-.771-3.151-.771-2.377.262-3.449.785c-1.073.523-1.984,1.253-2.732,2.191-.748.938-1.249,2.039-1.501,3.301l-1.623,8.657c-.217,1.334-.136,2.525.243,3.571s1.037,1.867,1.975,2.462c.938.595,2.146.893,3.625.893,1.01,0,1.971-.14,2.881-.419.911-.279,1.723-.694,2.435-1.244.713-.55,1.285-1.222,1.719-2.016h13.634c-.974,2.886-2.512,5.388-4.612,7.507-2.102,2.12-4.68,3.76-7.737,4.924-3.057,1.163-6.515,1.745-10.374,1.745ZM160.366,13.851l-17.313,41.552"/>
  <polyline class="st2" points="198.26 38.09 136.299 38.076 135.869 29.852 185.815 29.866"/>
  <path class="st0" d="M199.957,55.403l6.925-41.552h14.5l-1.298,7.899h.433c1.244-2.921,2.804-5.059,4.68-6.411s3.923-2.029,6.142-2.029c.648,0,1.275.05,1.88.148.604.1,1.204.23,1.799.393l-2.164,12.769c-.703-.271-1.578-.464-2.624-.582s-1.975-.176-2.786-.176c-1.443,0-2.792.329-4.045.987-1.254.659-2.317,1.578-3.192,2.759-.875,1.182-1.456,2.566-1.744,4.152l-3.571,21.642h-14.933Z"/>
  <path class="st0" d="M288.539,0l-9.198,55.403h-12.552l-15.149-29.108h-.325l-4.869,29.108h-15.041L240.603,0h12.769l14.933,29h.433l4.762-29h15.041Z"/>
  <path class="st0" d="M305.122,56.161c-4.437,0-8.115-.853-11.037-2.557-2.922-1.705-4.978-4.157-6.168-7.358-1.19-3.201-1.407-7.038-.649-11.511.721-4.292,2.214-8.043,4.478-11.254,2.263-3.21,5.121-5.708,8.575-7.494,3.453-1.785,7.326-2.678,11.619-2.678,3.138,0,5.893.487,8.265,1.46,2.371.974,4.306,2.39,5.803,4.248,1.496,1.857,2.511,4.098,3.043,6.722s.527,5.586-.014,8.887l-.541,3.463h-40.736l1.298-8.224h26.994c.181-1.19.068-2.241-.338-3.151-.405-.911-1.046-1.623-1.921-2.137s-1.925-.771-3.151-.771-2.376.262-3.449.785-1.984,1.253-2.732,2.191c-.748.938-1.249,2.039-1.501,3.301l-1.623,8.657c-.217,1.334-.136,2.525.243,3.571s1.037,1.867,1.975,2.462c.938.595,2.146.893,3.625.893,1.01,0,1.971-.14,2.882-.419.91-.279,1.722-.694,2.435-1.244.712-.55,1.285-1.222,1.718-2.016h13.634c-.974,2.886-2.512,5.388-4.612,7.507-2.101,2.12-4.68,3.76-7.736,4.924-3.058,1.163-6.516,1.745-10.375,1.745Z"/>
  <path class="st0" d="M372.208,27.377h-13.418c.072-.866-.081-1.605-.46-2.218-.378-.613-.906-1.082-1.582-1.407-.677-.325-1.438-.487-2.286-.487-1.479,0-2.822.329-4.03.987-1.209.659-1.885,1.52-2.029,2.583-.091.415.045.803.405,1.164.361.361,1.308.694,2.841,1l8.224,1.515c4.112.757,7.11,2.133,8.995,4.125,1.885,1.993,2.565,4.622,2.043,7.886-.487,2.832-1.731,5.267-3.733,7.304-2.002,2.038-4.541,3.603-7.615,4.694-3.075,1.091-6.471,1.637-10.186,1.637-6.547,0-11.447-1.308-14.703-3.923-3.255-2.615-4.738-6.033-4.45-10.253h14.501c.035,1.353.49,2.367,1.365,3.043s2.043,1.033,3.504,1.068c1.587.054,2.976-.266,4.166-.96,1.19-.694,1.857-1.564,2.002-2.61.054-.595-.203-1.046-.771-1.353-.567-.307-1.646-.613-3.232-.92l-7.142-1.298c-4.112-.739-7.106-2.223-8.981-4.45-1.876-2.227-2.525-5.072-1.948-8.535.469-2.759,1.592-5.076,3.368-6.952,1.776-1.875,4.116-3.296,7.021-4.261,2.903-.965,6.258-1.447,10.063-1.447,6.222,0,10.933,1.249,14.135,3.747,3.201,2.498,4.513,5.938,3.936,10.32Z"/>
  <path class="st0" d="M404.426,13.851l-1.84,10.821h-27.377l1.84-10.821h27.377ZM383.974,3.896h14.934l-6.331,38.144c-.09.577-.072,1.06.055,1.447.126.388.383.676.771.866s.906.284,1.556.284c.433,0,.965-.059,1.597-.176.631-.117,1.108-.203,1.434-.257l.433,10.497c-.758.216-1.771.464-3.043.744-1.271.279-2.746.464-4.424.554-3.499.163-6.344-.207-8.535-1.108-2.19-.902-3.706-2.313-4.544-4.234-.839-1.921-.988-4.324-.446-7.209l6.546-39.551Z"/>
  <polyline class="st1" points="328.483 38.09 249.344 38.09 250.719 29.866 316.038 29.866"/>
  <metadata>
    <sfw xmlns="http://ns.adobe.com/SaveForWeb/1.0/">
      <slices/>
      <sliceSourceBounds x="218.42" y="-407.63" width="404.43" height="56.16" bottomLeftOrigin="true"/>
    </sfw>
  </metadata>
</svg>