<?xml version="1.0" encoding="utf-8"?>
<!-- Generator: Adobe Illustrator 28.2.0, SVG Export Plug-In . SVG Version: 6.00 Build 0)  -->
<svg version="1.1" id="Layer_1" xmlns="http://www.w3.org/2000/svg" xmlns:xlink="http://www.w3.org/1999/xlink" x="0px" y="0px"
	 viewBox="0 0 204.1 162.4" style="enable-background:new 0 0 204.1 162.4;" xml:space="preserve">
<style type="text/css">
	.st0{fill:#646463;}
	.st1{fill:url(#SVGID_1_);}
	.st2{fill:url(#SVGID_00000094615045287678553290000011661363436282059198_);}
	.st3{fill:url(#SVGID_00000097490882547790937990000007784962637666372003_);}
	.st4{fill:url(#SVGID_00000044890006821375464240000001739790820334393023_);}
	.st5{fill:url(#SVGID_00000176725861203218576230000013506239915627957426_);}
	.st6{fill:url(#SVGID_00000183236538300383647940000002079659297769566346_);}
	.st7{fill:url(#SVGID_00000168106702097232881470000013558405939216521371_);}
	.st8{fill:url(#SVGID_00000069381383708699458450000008442179529311482761_);}
	.st9{fill:url(#SVGID_00000095330667156338982130000006045446028261331885_);}
	.st10{fill:url(#SVGID_00000001637644452118282720000010765673990184815262_);}
	.st11{fill:url(#SVGID_00000061464638204663618850000002634188996221163941_);}
	.st12{fill:url(#SVGID_00000178927619584363238630000011456522958171691162_);}
	.st13{fill:url(#SVGID_00000034051523995140129170000010182646645502911364_);}
	.st14{fill:url(#SVGID_00000086687690794763322640000009770797260906183347_);}
</style>
<g id="Layer_7">
	<g>
		<path class="st0" d="M26.1,103.7H5.8v8h18c2.6,0,4.3,0.5,5.2,1.4c0.9,0.9,1.4,2.7,1.4,5.3v3.2c0,2.6-0.5,4.4-1.4,5.4
			c-0.9,0.9-2.7,1.4-5.3,1.4H7.1c-2.6,0-4.4-0.5-5.3-1.4c-0.9-1-1.4-2.7-1.4-5.4v-0.8l4.4-1v4.6h21.4v-8.6h-18
			c-2.6,0-4.4-0.5-5.3-1.4s-1.4-2.7-1.4-5.4v-2.5c0-2.6,0.5-4.4,1.4-5.4s2.7-1.4,5.3-1.4h15.2c2.6,0,4.3,0.5,5.3,1.4
			s1.5,2.6,1.5,4.9v0.6l-4.1,1.2C26.1,107.8,26.1,103.7,26.1,103.7z"/>
		<path class="st0" d="M44.6,106.6c0-2.6,0.5-4.4,1.4-5.4s2.7-1.4,5.3-1.4h19.8c2.6,0,4.4,0.5,5.3,1.4c0.9,1,1.4,2.7,1.4,5.4v15.1
			c0,2.6-0.5,4.4-1.4,5.4c-0.9,0.9-2.7,1.4-5.3,1.4H51.3c-2.6,0-4.4-0.5-5.3-1.4c-0.9-1-1.4-2.7-1.4-5.4V106.6z M49.4,124.4h23.8
			v-20.8H49.4V124.4z"/>
		<path class="st0" d="M92.4,128.4V99.8h4.8v24.7h21.7v4H92.4V128.4z"/>
		<path class="st0" d="M124.2,128.4l15.7-28.7h5.1l15.9,28.7h-5.3l-3.7-7.1h-19.4l-3.7,7.1H124.2z M134.6,117.7H150l-7.7-14.7
			L134.6,117.7z"/>
		<path class="st0" d="M170.2,128.4V99.8h23.1c2.2,0,3.7,0.4,4.7,1.3s1.4,2.3,1.4,4.3v6.4c0,1.9-0.5,3.4-1.4,4.2
			c-1,0.9-2.5,1.3-4.7,1.3h-4.2l13.1,11.2h-7.1l-11.7-11.2H175v11.2h-4.8V128.4z M191.4,103.5H175v10h16.4c1.2,0,2-0.2,2.4-0.6
			s0.7-1.2,0.7-2.3v-4.2c0-1.1-0.2-1.8-0.7-2.3C193.4,103.7,192.6,103.5,191.4,103.5z"/>
	</g>
</g>
<g id="Layer_6">
	<g>
		
			<linearGradient id="SVGID_1_" gradientUnits="userSpaceOnUse" x1="34.7202" y1="211.0719" x2="124.7216" y2="44.4023" gradientTransform="matrix(1 0 0 -1 0 164)">
			<stop  offset="0" style="stop-color:#FFFFFF"/>
			<stop  offset="0.3371" style="stop-color:#FFD300"/>
			<stop  offset="1" style="stop-color:#E56606"/>
		</linearGradient>
		<polygon class="st1" points="57.3,0.5 53.9,4 53.9,25.3 57.3,28.8 78.7,28.8 82.2,25.3 82.2,4 78.7,0.5 		"/>
		
			<linearGradient id="SVGID_00000155861111756403258570000014470068536627947691_" gradientUnits="userSpaceOnUse" x1="57.9482" y1="223.6128" x2="147.9473" y2="56.9474" gradientTransform="matrix(1 0 0 -1 0 164)">
			<stop  offset="0" style="stop-color:#FFFFFF"/>
			<stop  offset="0.3371" style="stop-color:#FFD300"/>
			<stop  offset="1" style="stop-color:#E56606"/>
		</linearGradient>
		<polygon style="fill:url(#SVGID_00000155861111756403258570000014470068536627947691_);" points="87.3,0.5 83.9,4 83.9,25.3 
			87.3,28.8 108.7,28.8 112.2,25.3 112.2,4 108.7,0.5 		"/>
		
			<linearGradient id="SVGID_00000150068488684070678170000014888311006118679198_" gradientUnits="userSpaceOnUse" x1="81.1739" y1="236.1578" x2="171.1753" y2="69.4882" gradientTransform="matrix(1 0 0 -1 0 164)">
			<stop  offset="0" style="stop-color:#FFFFFF"/>
			<stop  offset="0.3371" style="stop-color:#FFD300"/>
			<stop  offset="1" style="stop-color:#E56606"/>
		</linearGradient>
		<polygon style="fill:url(#SVGID_00000150068488684070678170000014888311006118679198_);" points="117.3,0.5 113.9,4 113.9,25.3 
			117.3,28.8 138.7,28.8 142.2,25.3 142.2,4 138.7,0.5 		"/>
		
			<linearGradient id="SVGID_00000104666361876915452910000012595312730729084604_" gradientUnits="userSpaceOnUse" x1="22.0511" y1="204.2332" x2="112.0526" y2="37.5636" gradientTransform="matrix(1 0 0 -1 0 164)">
			<stop  offset="0" style="stop-color:#FFFFFF"/>
			<stop  offset="0.3371" style="stop-color:#FFD300"/>
			<stop  offset="1" style="stop-color:#E56606"/>
		</linearGradient>
		<polygon style="fill:url(#SVGID_00000104666361876915452910000012595312730729084604_);" points="57.3,30.8 53.9,34.3 53.9,55.6 
			57.3,59.1 78.7,59.1 82.2,55.6 82.2,34.3 78.7,30.8 		"/>
		
			<linearGradient id="SVGID_00000034777814775040236540000015102254221579874474_" gradientUnits="userSpaceOnUse" x1="45.2808" y1="216.7709" x2="135.28" y2="50.1055" gradientTransform="matrix(1 0 0 -1 0 164)">
			<stop  offset="0" style="stop-color:#FFFFFF"/>
			<stop  offset="0.3371" style="stop-color:#FFD300"/>
			<stop  offset="1" style="stop-color:#E56606"/>
		</linearGradient>
		<polygon style="fill:url(#SVGID_00000034777814775040236540000015102254221579874474_);" points="87.3,30.8 83.9,34.3 83.9,55.6 
			87.3,59.1 108.7,59.1 112.2,55.6 112.2,34.3 108.7,30.8 		"/>
		
			<linearGradient id="SVGID_00000092451072501987685810000008416477076377697725_" gradientUnits="userSpaceOnUse" x1="68.5064" y1="229.3161" x2="158.5079" y2="62.6464" gradientTransform="matrix(1 0 0 -1 0 164)">
			<stop  offset="0" style="stop-color:#FFFFFF"/>
			<stop  offset="0.3371" style="stop-color:#FFD300"/>
			<stop  offset="1" style="stop-color:#E56606"/>
		</linearGradient>
		<polygon style="fill:url(#SVGID_00000092451072501987685810000008416477076377697725_);" points="117.3,30.8 113.9,34.3 
			113.9,55.6 117.3,59.1 138.7,59.1 142.2,55.6 142.2,34.3 138.7,30.8 		"/>
		
			<linearGradient id="SVGID_00000126304974347753521910000009435713385301176484_" gradientUnits="userSpaceOnUse" x1="9.3838" y1="197.3914" x2="99.3852" y2="30.7218" gradientTransform="matrix(1 0 0 -1 0 164)">
			<stop  offset="0" style="stop-color:#FFFFFF"/>
			<stop  offset="0.3371" style="stop-color:#FFD300"/>
			<stop  offset="1" style="stop-color:#E56606"/>
		</linearGradient>
		<polygon style="fill:url(#SVGID_00000126304974347753521910000009435713385301176484_);" points="57.3,61.1 53.9,64.6 53.9,85.9 
			57.3,89.4 78.7,89.4 82.2,85.9 82.2,64.6 78.7,61.1 		"/>
		
			<linearGradient id="SVGID_00000147215976401413204930000015825577281220293272_" gradientUnits="userSpaceOnUse" x1="32.6119" y1="209.932" x2="122.6127" y2="43.2635" gradientTransform="matrix(1 0 0 -1 0 164)">
			<stop  offset="0" style="stop-color:#FFFFFF"/>
			<stop  offset="0.3371" style="stop-color:#FFD300"/>
			<stop  offset="1" style="stop-color:#E56606"/>
		</linearGradient>
		<polygon style="fill:url(#SVGID_00000147215976401413204930000015825577281220293272_);" points="87.3,61.1 83.9,64.6 83.9,85.9 
			87.3,89.4 108.7,89.4 112.2,85.9 112.2,64.6 108.7,61.1 		"/>
		
			<linearGradient id="SVGID_00000140699915471703088410000001126443400356595617_" gradientUnits="userSpaceOnUse" x1="55.8391" y1="222.4742" x2="145.8388" y2="55.8077" gradientTransform="matrix(1 0 0 -1 0 164)">
			<stop  offset="0" style="stop-color:#FFFFFF"/>
			<stop  offset="0.3371" style="stop-color:#FFD300"/>
			<stop  offset="1" style="stop-color:#E56606"/>
		</linearGradient>
		<polygon style="fill:url(#SVGID_00000140699915471703088410000001126443400356595617_);" points="117.3,61.1 113.9,64.6 
			113.9,85.9 117.3,89.4 138.7,89.4 142.2,85.9 142.2,64.6 138.7,61.1 		"/>
	</g>
</g>
<g id="Layer_5">
	<g>
		<g>
			<path class="st0" d="M2.2,136.2c0,0.2,0,0.4,0.1,0.6c0,0.2,0,0.5,0,0.9v6.9H0.8v-10.2h1.4l5,6.7l4.6-6.7h1.6v10.2h-1.6v-6.9
				c0-0.1,0-0.3,0-0.7s0-0.6,0-0.8c-0.1,0.3-0.2,0.5-0.3,0.7s-0.2,0.3-0.3,0.4L7.4,143H7l-4.1-5.5c0,0,0,0,0-0.1
				C2.6,137,2.4,136.6,2.2,136.2z"/>
			<path class="st0" d="M33.1,144.7l5.6-10.2h1.8l5.7,10.2h-1.9l-1.3-2.5h-6.9l-1.3,2.5H33.1z M36.8,140.8h5.5l-2.8-5.2L36.8,140.8z
				"/>
			<path class="st0" d="M65.8,144.7v-10.2h1.1l7.7,6.9c0.2,0.2,0.4,0.3,0.6,0.6c0.2,0.2,0.4,0.5,0.6,0.7c-0.1-0.3-0.1-0.7-0.1-1
				c0-0.4,0-0.9,0-1.5v-5.6h1.6v10.2h-1l-7.9-7.1c0,0-0.1-0.1-0.2-0.2c-0.4-0.3-0.7-0.7-0.9-1c0,0.3,0.1,0.6,0.1,1s0,0.8,0,1.2v6
				L65.8,144.7L65.8,144.7z"/>
			<path class="st0" d="M96.8,144.7l5.6-10.2h1.8l5.7,10.2H108l-1.3-2.5h-6.9l-1.3,2.5H96.8z M100.5,140.8h5.5l-2.8-5.2L100.5,140.8
				z"/>
			<path class="st0" d="M139.1,135.8h-8v7.4h8v-3h-4.2v-1.3h5.9v3.3c0,0.9-0.2,1.6-0.5,1.9c-0.3,0.3-1,0.5-1.9,0.5h-6.6
				c-0.9,0-1.6-0.2-1.9-0.5c-0.3-0.3-0.5-1-0.5-1.9v-5.4c0-0.9,0.2-1.6,0.5-1.9c0.3-0.3,1-0.5,1.9-0.5h6.6c0.9,0,1.6,0.2,1.9,0.5
				c0.3,0.3,0.5,0.9,0.5,1.8v0.2l-1.7,0.3V135.8z"/>
			<path class="st0" d="M162,144.7v-10.2h9.9v1.4h-8.2v2.9h5v1.3h-5v3.2h8.2v1.4L162,144.7L162,144.7z"/>
			<path class="st0" d="M192.4,144.7v-10.2h8.3c0.8,0,1.3,0.2,1.7,0.5c0.3,0.3,0.5,0.8,0.5,1.5v2.3c0,0.7-0.2,1.2-0.5,1.5
				s-0.9,0.5-1.7,0.5h-1.5l4.7,4h-2.5l-4.2-4h-3v4h-1.8V144.7z M200,135.7h-5.9v3.6h5.9c0.4,0,0.7-0.1,0.9-0.2
				c0.2-0.2,0.2-0.4,0.2-0.8v-1.5c0-0.4-0.1-0.7-0.2-0.8C200.7,135.8,200.4,135.7,200,135.7z"/>
		</g>
	</g>
</g>
<g id="Layer_4">
	<g>
		<path class="st0" d="M5.4,155.6H2.2v2.9h3.5v0.9H1.1v-8.2h4.4v0.9H2.2v2.6h3.2V155.6z"/>
		<path class="st0" d="M10.2,152.5c-0.4,0-0.7-0.3-0.7-0.7s0.3-0.7,0.7-0.7s0.7,0.3,0.7,0.7S10.6,152.5,10.2,152.5L10.2,152.5z
			 M9.7,159.5v-5.9h1.1v5.9H9.7z"/>
		<path class="st0" d="M20.2,158.6c0,1.4-0.3,2.2-0.8,2.7c-0.6,0.5-1.4,0.7-2.1,0.7s-1.5-0.2-2-0.5l0.3-0.8c0.4,0.3,1,0.5,1.7,0.5
			c1.1,0,1.9-0.6,1.9-2.1v-0.6l0,0c-0.3,0.5-1,1-1.9,1c-1.5,0-2.5-1.2-2.5-2.9c0-2,1.3-3.1,2.7-3.1c1,0,1.6,0.5,1.8,1l0,0v-0.9h0.9
			c0,0.4,0,0.9,0,1.6V158.6z M19.2,155.9c0-0.2,0-0.3-0.1-0.5c-0.2-0.6-0.7-1.1-1.5-1.1c-1,0-1.7,0.9-1.7,2.2c0,1.1,0.6,2.1,1.7,2.1
			c0.7,0,1.3-0.4,1.5-1.1c0.1-0.2,0.1-0.4,0.1-0.6V155.9z"/>
		<path class="st0" d="M25.2,156.7c0,1.4,0.9,2,2,2c0.8,0,1.2-0.1,1.6-0.3l0.2,0.8c-0.4,0.2-1,0.4-2,0.4c-1.8,0-2.9-1.2-2.9-3
			s1.1-3.2,2.8-3.2c1.9,0,2.4,1.7,2.4,2.8c0,0.2,0,0.4,0,0.5H25.2z M28.4,156c0-0.7-0.3-1.7-1.5-1.7c-1.1,0-1.6,1-1.6,1.7H28.4z"/>
		<path class="st0" d="M33.4,155.2c0-0.6,0-1.1,0-1.6h0.9l0.1,1l0,0c0.3-0.5,1-1.1,1.9-1.1c0.8,0,2.1,0.5,2.1,2.5v3.5h-1.1v-3.4
			c0-0.9-0.4-1.7-1.4-1.7c-0.7,0-1.2,0.5-1.4,1.1c0,0.1-0.1,0.3-0.1,0.5v3.5h-1.1L33.4,155.2L33.4,155.2z"/>
		<path class="st0" d="M43,153.6l1.2,3.3c0.2,0.5,0.4,1,0.5,1.5l0,0c0.1-0.5,0.3-1,0.5-1.5l1.1-3.3h1.1l-2.3,5.9h-1l-2.2-5.9H43z"/>
		<path class="st0" d="M51.5,156.7c0,1.4,0.9,2,2,2c0.8,0,1.2-0.1,1.6-0.3l0.2,0.8c-0.4,0.2-1,0.4-2,0.4c-1.8,0-2.9-1.2-2.9-3
			s1.1-3.2,2.8-3.2c1.9,0,2.4,1.7,2.4,2.8c0,0.2,0,0.4,0,0.5H51.5z M54.6,156c0-0.7-0.3-1.7-1.5-1.7c-1.1,0-1.6,1-1.6,1.7H54.6z"/>
		<path class="st0" d="M59.7,155.4c0-0.7,0-1.3,0-1.8h0.9v1.2l0,0c0.3-0.8,0.9-1.3,1.6-1.3c0.1,0,0.2,0,0.3,0v1c-0.1,0-0.2,0-0.4,0
			c-0.8,0-1.3,0.6-1.4,1.4c0,0.2,0,0.3,0,0.5v3.1h-1.1L59.7,155.4z"/>
		<path class="st0" d="M66.3,150.9h1.1v3.7l0,0c0.4-0.7,1.1-1.1,2-1.1c1.5,0,2.5,1.2,2.5,3c0,2.1-1.3,3.2-2.6,3.2
			c-0.8,0-1.5-0.3-2-1.1l0,0l-0.1,1h-0.9c0-0.4,0-1,0-1.5V150.9z M67.3,157.1c0,0.1,0,0.3,0,0.4c0.2,0.7,0.8,1.2,1.6,1.2
			c1.1,0,1.8-0.9,1.8-2.3c0-1.2-0.6-2.2-1.7-2.2c-0.7,0-1.4,0.5-1.6,1.3c0,0.1-0.1,0.3-0.1,0.4C67.3,155.9,67.3,157.1,67.3,157.1z"
			/>
		<path class="st0" d="M75.9,155.4c0-0.7,0-1.3,0-1.8h0.9v1.2l0,0c0.3-0.8,0.9-1.3,1.6-1.3c0.1,0,0.2,0,0.3,0v1c-0.1,0-0.2,0-0.4,0
			c-0.8,0-1.3,0.6-1.4,1.4c0,0.2,0,0.3,0,0.5v3.1h-1.1L75.9,155.4z"/>
		<path class="st0" d="M86.5,158.1c0,0.5,0,1,0.1,1.4h-1l-0.1-0.7l0,0c-0.3,0.5-1,0.9-1.8,0.9c-1.2,0-1.8-0.8-1.8-1.7
			c0-1.4,1.3-2.2,3.5-2.2v-0.1c0-0.5-0.1-1.4-1.3-1.4c-0.6,0-1.1,0.2-1.5,0.4l-0.2-0.7c0.5-0.3,1.2-0.5,1.9-0.5
			c1.8,0,2.2,1.2,2.2,2.4C86.5,155.9,86.5,158.1,86.5,158.1z M85.5,156.5c-1.2,0-2.5,0.2-2.5,1.3c0,0.7,0.5,1,1,1
			c0.8,0,1.3-0.5,1.4-1c0-0.1,0-0.2,0-0.3L85.5,156.5L85.5,156.5z"/>
		<path class="st0" d="M95.8,157.9c0,0.6,0,1.1,0,1.6h-0.9l-0.1-1l0,0c-0.3,0.5-0.9,1.1-1.9,1.1c-0.9,0-2-0.5-2-2.6v-3.4H92v3.2
			c0,1.1,0.4,1.9,1.3,1.9c0.7,0,1.2-0.5,1.4-1c0.1-0.1,0.1-0.3,0.1-0.5v-3.6h1.1L95.8,157.9L95.8,157.9z"/>
		<path class="st0" d="M104.4,159.3c-0.3,0.1-0.9,0.3-1.7,0.3c-1.8,0-2.9-1.2-2.9-3s1.2-3.1,3.2-3.1c0.6,0,1.2,0.2,1.5,0.3l-0.2,0.8
			c-0.3-0.1-0.7-0.3-1.2-0.3c-1.3,0-2.1,1-2.1,2.2c0,1.4,0.9,2.2,2,2.2c0.6,0,1-0.1,1.3-0.3L104.4,159.3z"/>
		<path class="st0" d="M108.3,150.9h1.1v3.7l0,0c0.2-0.3,0.4-0.6,0.8-0.8c0.3-0.2,0.7-0.3,1.1-0.3c0.8,0,2,0.5,2,2.5v3.5h-1.1v-3.4
			c0-1-0.4-1.7-1.4-1.7c-0.7,0-1.2,0.5-1.4,1.1c-0.1,0.1-0.1,0.3-0.1,0.5v3.5h-1.1L108.3,150.9L108.3,150.9z"/>
		<path class="st0" d="M125.3,159.6c-1.6,0-2.8-1.2-2.8-3c0-2,1.3-3.1,2.9-3.1c1.7,0,2.8,1.2,2.8,3
			C128.3,158.7,126.8,159.6,125.3,159.6L125.3,159.6z M125.4,158.8c1,0,1.8-1,1.8-2.3c0-1-0.5-2.2-1.8-2.2c-1.2,0-1.8,1.2-1.8,2.3
			C123.6,157.8,124.3,158.8,125.4,158.8L125.4,158.8z"/>
		<path class="st0" d="M132.3,155.5c0-0.8,0-1.4,0-1.9h1l0.1,1l0,0c0.4-0.7,1.1-1.1,2.1-1.1c1.4,0,2.5,1.2,2.5,3
			c0,2.1-1.3,3.2-2.7,3.2c-0.8,0-1.5-0.3-1.8-0.9l0,0v3.2h-1.1v-6.5H132.3z M133.3,157.1c0,0.1,0,0.3,0,0.4c0.2,0.7,0.8,1.2,1.6,1.2
			c1.1,0,1.8-0.9,1.8-2.3c0-1.2-0.6-2.2-1.7-2.2c-0.7,0-1.4,0.5-1.6,1.3c0,0.1-0.1,0.3-0.1,0.4V157.1z"/>
		<path class="st0" d="M143.1,152.2v1.4h1.5v0.8h-1.5v3.2c0,0.7,0.2,1.1,0.8,1.1c0.3,0,0.5,0,0.6-0.1v0.8c-0.2,0.1-0.5,0.1-0.9,0.1
			c-0.5,0-0.9-0.2-1.2-0.4c-0.3-0.3-0.4-0.8-0.4-1.5v-3.2h-0.9v-0.8h0.9v-1.1L143.1,152.2z"/>
		<path class="st0" d="M149,152.5c-0.4,0-0.7-0.3-0.7-0.7s0.3-0.7,0.7-0.7s0.7,0.3,0.7,0.7S149.5,152.5,149,152.5L149,152.5z
			 M148.5,159.5v-5.9h1.1v5.9H148.5z"/>
		<path class="st0" d="M154,155.2c0-0.6,0-1.1,0-1.6h0.9v0.9l0,0c0.3-0.6,0.9-1.1,1.9-1.1c0.8,0,1.4,0.5,1.6,1.2l0,0
			c0.2-0.3,0.4-0.6,0.7-0.8c0.4-0.3,0.7-0.4,1.3-0.4c0.8,0,1.9,0.5,1.9,2.5v3.5h-1v-3.3c0-1.1-0.4-1.8-1.3-1.8c-0.6,0-1.1,0.4-1.3,1
			c0,0.2-0.1,0.4-0.1,0.5v3.6h-1V156c0-0.9-0.4-1.6-1.2-1.6c-0.7,0-1.2,0.5-1.3,1.1c-0.1,0.2-0.1,0.3-0.1,0.5v3.5h-1L154,155.2
			L154,155.2z"/>
		<path class="st0" d="M167.3,152.5c-0.4,0-0.7-0.3-0.7-0.7s0.3-0.7,0.7-0.7s0.7,0.3,0.7,0.7S167.7,152.5,167.3,152.5L167.3,152.5z
			 M166.8,159.5v-5.9h1.1v5.9H166.8z"/>
		<path class="st0" d="M172.9,156.7c0,1.4,0.9,2,2,2c0.8,0,1.2-0.1,1.6-0.3l0.2,0.8c-0.4,0.2-1,0.4-2,0.4c-1.8,0-2.9-1.2-2.9-3
			s1.1-3.2,2.8-3.2c1.9,0,2.4,1.7,2.4,2.8c0,0.2,0,0.4,0,0.5H172.9z M176,156c0-0.7-0.3-1.7-1.5-1.7c-1.1,0-1.6,1-1.6,1.7H176z"/>
		<path class="st0" d="M181,155.4c0-0.7,0-1.3,0-1.8h0.9v1.2l0,0c0.3-0.8,0.9-1.3,1.6-1.3c0.1,0,0.2,0,0.3,0v1c-0.1,0-0.2,0-0.4,0
			c-0.8,0-1.3,0.6-1.4,1.4c0,0.2,0,0.3,0,0.5v3.1h-1V155.4z"/>
		<path class="st0" d="M188.2,156.7c0,1.4,0.9,2,2,2c0.8,0,1.2-0.1,1.6-0.3l0.2,0.8c-0.4,0.2-1,0.4-2,0.4c-1.8,0-2.9-1.2-2.9-3
			s1.1-3.2,2.8-3.2c1.9,0,2.4,1.7,2.4,2.8c0,0.2,0,0.4,0,0.5H188.2z M191.3,156c0-0.7-0.3-1.7-1.5-1.7c-1.1,0-1.6,1-1.6,1.7H191.3z"
			/>
		<path class="st0" d="M196.3,155.2c0-0.6,0-1.1,0-1.6h0.9l0.1,1l0,0c0.3-0.5,1-1.1,1.9-1.1c0.8,0,2.1,0.5,2.1,2.5v3.5h-1.1v-3.4
			c0-0.9-0.4-1.7-1.4-1.7c-0.7,0-1.2,0.5-1.4,1.1c0,0.1-0.1,0.3-0.1,0.5v3.5h-1.1v-4.3H196.3z"/>
	</g>
</g>
<g id="Layer_3">
	<g>
		
			<linearGradient id="SVGID_00000059307066628027181450000010443410698960015541_" gradientUnits="userSpaceOnUse" x1="-2970.8477" y1="1218.2832" x2="-2846.6316" y2="1128.6315" gradientTransform="matrix(-1 0 0 1 -2791.623 -1106.0914)">
			<stop  offset="0.1517" style="stop-color:#EBEBEB"/>
			<stop  offset="0.8595" style="stop-color:#5F5F5E"/>
		</linearGradient>
		<path style="fill:url(#SVGID_00000059307066628027181450000010443410698960015541_);" d="M110,55.2c0,0-2.9,12.6-13,26.8l-3.2-3.4
			c0,0-21.4,12.4-38.3,3.8c0,0-12.4-9-14-10.3c-1.6-1.3-4.9-5.9-2.2-14.9s17.9-34.3,49.1-46.8c31-12.4,36.5,5.6,36.9,7.6
			c0,0-3.8-8.1-13-8.3s-24.7,2.2-44.8,20.5C47.3,48.5,47,66.5,50,71.9c0,0,10.8,2.2,28.4-9.4l-2.3-2.3L75.6,57
			c0,0,18.2-0.2,31.7-3.6L110,55.2z"/>
		
			<linearGradient id="SVGID_00000011733781084482195300000013199720592343196801_" gradientUnits="userSpaceOnUse" x1="-2886.3562" y1="1079.6935" x2="-2883.6562" y2="1192.014" gradientTransform="matrix(-1 0 0 1 -2791.623 -1106.0914)">
			<stop  offset="0.1517" style="stop-color:#EBEBEB"/>
			<stop  offset="0.8595" style="stop-color:#5F5F5E"/>
		</linearGradient>
		<path style="fill:url(#SVGID_00000011733781084482195300000013199720592343196801_);" d="M107.3,53.4C93.8,56.8,75.6,57,75.6,57
			l0.5,3.2c19.9-0.9,31.1-4.2,33.8-5L107.3,53.4z"/>
		
			<linearGradient id="SVGID_00000126296858968732311720000016235455152970589591_" gradientUnits="userSpaceOnUse" x1="-2779.1853" y1="1098.9971" x2="-2908.8" y2="1165.9647" gradientTransform="matrix(-1 0 0 1 -2791.623 -1106.0914)">
			<stop  offset="0.1517" style="stop-color:#EBEBEB"/>
			<stop  offset="0.8595" style="stop-color:#5F5F5E"/>
		</linearGradient>
		<path style="fill:url(#SVGID_00000126296858968732311720000016235455152970589591_);" d="M41.4,72.1c0.2,0.2,0.7,0.5,1.3,1
			c14.5,7.8,37.9-7.8,37.9-7.8l-2.2-2.7C63,72.6,52.9,72.3,50.5,72c-2.1,0-6.4-0.4-9.1-3.6c-3.3-4.1-1.1-13.5,3.5-21.3
			c5.5-9.7,15.7-21.4,30.8-29.9C100,3.6,109.9,6.3,115.4,7.9c4.2,1.2,7.6,5.5,8.9,7.5c-2.5-5.2-10.9-15.1-36-5
			C57.1,22.9,41.9,48.1,39.2,57.1S39.8,70.8,41.4,72.1z"/>
		
			<linearGradient id="SVGID_00000166666534928132737260000015812235101525195194_" gradientUnits="userSpaceOnUse" x1="-2888.4211" y1="1199.4237" x2="-2860.877" y2="1158.9177" gradientTransform="matrix(-1 0 0 1 -2791.623 -1106.0914)">
			<stop  offset="0.1517" style="stop-color:#EBEBEB"/>
			<stop  offset="0.8595" style="stop-color:#5F5F5E"/>
		</linearGradient>
		<path style="fill:url(#SVGID_00000166666534928132737260000015812235101525195194_);" d="M93.8,78.6L97,82
			c9.4-13.3,12.6-25.2,12.9-26.7l-0.1-0.2c0,0-37.3,37.8-64.4,20c4.2,3.1,9.9,7.2,9.9,7.2C72.4,91,93.8,78.6,93.8,78.6z"/>
	</g>
</g>
<g id="Layer_2">
	
		<linearGradient id="SVGID_00000173853344845508036380000005972659162821507249_" gradientUnits="userSpaceOnUse" x1="49.7979" y1="219.2134" x2="139.7968" y2="52.5484" gradientTransform="matrix(1 0 0 -1 0 164)">
		<stop  offset="0" style="stop-color:#FFFFFF"/>
		<stop  offset="0.3371" style="stop-color:#FFD300"/>
		<stop  offset="1" style="stop-color:#E56606"/>
	</linearGradient>
	<path style="fill:url(#SVGID_00000173853344845508036380000005972659162821507249_);" d="M57.3,0.5l-2.2,2.2l-1.2,2v20.6l3.5,3.5
		h21.3l3.5-3.5V4l-3.5-3.5H57.3z M57.3,30.8l-3.5,3.5v21.3l0.4,0.4l27.9-6.2V34.3l-3.5-3.5H57.3z M135.9,2.1l-3.4-1.6h-15.2L113.9,4
		v21.3l3.5,3.5h21.3l3.5-3.5V12.5L135.9,2.1z M117.3,30.8l-3.5,3.5v8.5l28.3-6.3v-2.2l-3.5-3.5H117.3z M87.3,0.5L83.9,4v21.3
		l3.5,3.5h21.3l3.5-3.5V4l-3.5-3.5H87.3z M87.3,30.8l-3.5,3.5v15.2l28.3-6.3v-8.9l-3.5-3.5C108.6,30.8,87.3,30.8,87.3,30.8z"/>
</g>
</svg>
