<?xml version="1.0" encoding="utf-8"?>
<!-- Generator: Adobe Illustrator 28.2.0, SVG Export Plug-In . SVG Version: 6.00 Build 0)  -->
<svg version="1.1" id="Ebene_1" xmlns="http://www.w3.org/2000/svg" xmlns:xlink="http://www.w3.org/1999/xlink" x="0px" y="0px"
	 viewBox="0 0 11.7 17.4" style="enable-background:new 0 0 11.7 17.4;" xml:space="preserve">
<style type="text/css">
	.st0{fill:#8FD46E;}
	.st1{opacity:0.5;fill:#8FD46E;}
</style>
<path class="st0" d="M0.8,17.4c-0.2,0-0.4-0.1-0.5-0.2C0.1,17,0,16.9,0,16.6V2.1c0-0.2,0.1-0.4,0.2-0.5c0.1-0.1,0.3-0.2,0.5-0.2h3.5
	V0h3.2v1.3H11c0.2,0,0.4,0.1,0.5,0.2c0.1,0.1,0.2,0.3,0.2,0.5v14.6c0,0.2-0.1,0.4-0.2,0.5c-0.1,0.1-0.3,0.2-0.5,0.2H0.8z M0.7,16.7
	H11V2H0.7V16.7z"/>
<rect x="1.4" y="13.1" class="st0" width="9" height="2.9"/>
<rect x="1.4" y="9.6" class="st0" width="9" height="2.9"/>
<rect x="1.4" y="6" class="st1" width="9" height="2.9"/>
</svg>
