<?xml version="1.0" encoding="utf-8"?>
<!-- Generator: Adobe Illustrator 28.2.0, SVG Export Plug-In . SVG Version: 6.00 Build 0)  -->
<svg version="1.1" id="Ebene_1" xmlns="http://www.w3.org/2000/svg" xmlns:xlink="http://www.w3.org/1999/xlink" x="0px" y="0px"
	 viewBox="0 0 143 51" style="enable-background:new 0 0 143 51;" xml:space="preserve">
<style type="text/css">
	.st0{fill:#660066;}
</style>
<g>
	<g>
		<path class="st0" d="M26.4,19.3c1.9,0.5,3.6,1.1,5.1,1.8c1.5,0.7,2.9,1.6,3.9,2.8c1.1,1.1,2,2.5,2.6,4.1s0.9,3.6,0.9,5.9
			c0,2.4-0.5,4.6-1.5,6.7c-1,2.1-2.4,3.9-4.3,5.4c-1.9,1.5-4.3,2.7-7.1,3.6c-2.8,0.9-6,1.3-9.6,1.3c-3,0-5.8-0.2-8.4-0.7
			c-2.6-0.4-5.3-1.2-8.2-2.3c0.3-4.3,1.5-8.6,3.5-13c2,0.9,4.1,1.7,6.3,2.1c2.2,0.5,4.4,0.7,6.6,0.7c0.8,0,1.5,0,2.4-0.1
			c0.8-0.1,1.5-0.2,2.2-0.4c0.6-0.2,1.1-0.5,1.6-0.9c0.4-0.4,0.6-0.9,0.6-1.5c0-0.8-0.4-1.4-1.2-1.8C21,32.6,20,32.2,19,31.9
			l-6.4-1.8c-3.3-0.9-6.1-2.5-8.3-4.8C2.1,23.2,1,20.1,1,16.2c0-2.5,0.5-4.7,1.5-6.7s2.4-3.7,4.2-5.1s4-2.5,6.4-3.3
			C15.7,0.4,18.4,0,21.4,0c2.4,0,5,0.3,7.8,0.8S34.8,2,37.6,3c-0.1,2-0.5,4.2-1.2,6.5s-1.5,4.3-2.4,6.1c-1.7-0.7-3.7-1.3-6.1-1.9
			c-2.4-0.6-4.6-0.8-6.6-0.8c-2.9,0-4.4,0.8-4.4,2.5c0,0.7,0.3,1.2,1,1.6s1.5,0.7,2.4,0.9L26.4,19.3z"/>
		<path class="st0" d="M66.4,39.2c0.6,0,1.4-0.1,2.4-0.2c1-0.1,1.8-0.3,2.3-0.4V28.3h-5.3c-2.2,0-4,0.5-5.5,1.4s-2.2,2.3-2.2,4
			c0,1.3,0.3,2.2,0.8,3c0.5,0.7,1.3,1.3,2.1,1.6c0.9,0.4,1.8,0.6,2.7,0.8C64.7,39.2,65.6,39.2,66.4,39.2z M44.6,33.9
			c0-3.1,0.6-5.6,1.9-7.6c1.3-2,3-3.6,5-4.8s4.3-2,6.7-2.5c2.5-0.5,4.9-0.7,7.2-0.7H71c-0.1-1.1-0.4-2.1-0.9-2.8
			c-0.6-0.8-1.3-1.3-2.1-1.7c-0.9-0.4-1.8-0.7-2.9-0.8c-1.1-0.2-2.2-0.2-3.2-0.2c-1.5,0-3.2,0.2-5.2,0.5s-4,0.9-6.1,1.7
			c-0.5-1-1-1.9-1.4-2.9c-0.4-0.9-0.7-1.8-0.9-2.7s-0.4-1.9-0.5-2.8c-0.1-1-0.1-2.1-0.1-3.3c3-1,5.9-1.8,8.8-2.3c3-0.7,5.6-1,8-1
			c3.2,0,6.1,0.4,8.7,1.2s4.8,2,6.6,3.6c1.8,1.6,3.2,3.7,4.2,6.3c1,2.5,1.5,5.6,1.5,9.1v27.6c-2.3,0.7-5.2,1.4-8.5,2.1
			c-3.3,0.7-6.8,1-10.5,1c-3.2,0-6.1-0.3-8.8-0.9c-2.7-0.6-5-1.6-6.9-2.9c-1.9-1.3-3.4-3.1-4.5-5.2C45.2,39.7,44.6,37.1,44.6,33.9z"
			/>
		<path class="st0" d="M124.2,1.9c1.1-0.2,2.5-0.4,4-0.6c1.6-0.1,3-0.2,4.2-0.2c1.6,0,3.2,0.1,4.8,0.2s2.9,0.3,3.9,0.6l-12.8,22.5
			l14.1,25.7c-1.1,0.2-2.5,0.4-4.1,0.6c-1.7,0.1-3.1,0.2-4.3,0.2c-1.6,0-3.2-0.1-4.7-0.2c-1.6-0.1-2.8-0.3-3.7-0.6L111.9,25
			L124.2,1.9z M93.1,1.9c1.3-0.3,2.7-0.5,4-0.7c1.3-0.1,2.5-0.2,3.8-0.2c1.2,0,2.4,0.1,3.8,0.2c1.3,0.1,2.7,0.3,4,0.7v48.2
			c-1.6,0.3-3,0.5-4.3,0.6s-2.4,0.1-3.4,0.1s-2.2,0-3.5-0.1s-2.7-0.3-4.3-0.6L93.1,1.9L93.1,1.9z"/>
	</g>
</g>
</svg>
