<?xml version="1.0" encoding="utf-8"?>
<!-- Generator: Adobe Illustrator 27.9.0, SVG Export Plug-In . SVG Version: 6.00 Build 0)  -->
<svg version="1.1" id="Ebene_1" xmlns="http://www.w3.org/2000/svg" xmlns:xlink="http://www.w3.org/1999/xlink" x="0px" y="0px"
	 viewBox="0 0 210.8 43.2" style="enable-background:new 0 0 210.8 43.2;" xml:space="preserve">
<style type="text/css">
	.st0{fill:#3A5BA7;}
</style>
<g>
	<g>
		<polygon class="st0" points="19.1,22 0,11 19.1,0 38.1,11 		"/>
		<path class="st0" d="M3.1,23.8v-3.3c0-0.1,0.1-0.2,0.2-0.1l14.1,8.2v-3.6L0,14.8v10.9l14.2,8.1c0.1,0.1,0.2,0.2,0.2,0.4v3.3
			c0,0.1-0.1,0.2-0.2,0.1L0,29.6v3.6l17.5,10V32.2L3.3,24.1C3.2,24,3.1,23.9,3.1,23.8z"/>
		<path class="st0" d="M38.1,18.4v-3.6L20.7,24.9v18.3l17.5-10.1v-3.6L24,37.7c-0.1,0.1-0.2,0-0.2-0.1v-3.3c0-0.1,0.1-0.3,0.2-0.4
			l14.2-8.2v-3.6L24,30.3c-0.1,0.1-0.2,0-0.2-0.1v-3.4c0-0.1,0.1-0.2,0.1-0.2L38.1,18.4z"/>
	</g>
	<g>
		<path class="st0" d="M125.4,5.1c-0.1,0-0.2,0.1-0.3,0.2c-0.9,1.5-1.8,3-2.6,4.5c-1,1.8-2.1,3.5-3.1,5.3c-0.4-0.7-0.9-1.5-1.3-2.2
			c-1.5-2.5-3.1-5.1-4.6-7.6c0-0.1-0.2-0.2-0.3-0.2c-0.4,0-2.1,0-3,0c-0.3,0-0.5,0.2-0.5,0.5c0,0.3,0,10.7,0,16.1
			c0,0.3,0.2,0.5,0.5,0.5c1,0,2.1,0,3.1,0c0.4,0,0.5-0.2,0.5-0.6l0-8.4c0,0,2.9,4.8,4.2,7c0.1,0.1,0.2,0.2,0.4,0.2
			c0.5,0,1.1,0,1.6,0c0.2,0,0.2,0,0.3-0.2c0.4-0.7,0.8-1.3,1.2-2c0.7-1.2,1.5-2.5,2.2-3.7c0.3-0.4,0.8-1.4,0.8-1.4s0,8.3,0,8.6
			c0,0.4,0.2,0.5,0.5,0.5s2.1,0,3.3,0c0.2,0,0.4-0.2,0.4-0.5c0-0.8,0-16.5,0-16.6C128.9,5.1,126.2,5.1,125.4,5.1z"/>
		<path class="st0" d="M103.5,5.1c-0.8,0-2.6,0-3.4,0c-0.3,0-0.4,0.1-0.4,0.4c0,0.6,0,9.1,0,9.1s-6.8-8.3-7.6-9.3
			c-0.1-0.2-0.3-0.2-0.5-0.2c-0.8,0-2,0-2.8,0c-0.3,0-0.5,0.2-0.5,0.5c0,5.4,0,10.7,0,16.1c0,0.3,0.2,0.5,0.5,0.5c1.1,0,2.2,0,3.3,0
			c0.4,0,0.6-0.1,0.6-0.6l0-8.9c0,0,6.9,8.3,7.7,9.3c0.1,0.1,0.2,0.1,0.3,0.1c0.9,0,1.9,0,2.8,0c0.4,0,0.5-0.2,0.5-0.5
			c0-2,0-12.7,0-16C104,5.3,103.8,5.1,103.5,5.1z"/>
		<path class="st0" d="M169.6,20.8c-0.6-0.8-1.3-1.6-1.9-2.5c-0.7-0.8-1.3-1.7-2-2.5c0.5-0.2,1-0.4,1.4-0.7c1-0.6,1.7-1.6,2-2.7
			c0.2-0.8,0.3-1.6,0.2-2.5c-0.1-0.9-0.2-1.7-0.7-2.5c-0.1-0.2-0.3-0.4-0.5-0.7c-0.5-0.6-1-1-1.7-1.3c-0.9-0.4-1.8-0.5-2.7-0.5
			c-2.2,0-6.3,0-7.7,0c-0.3,0-0.5,0.2-0.5,0.5c0,3.4,0,13.6,0,16.4c0,0.3,0.1,0.3,0.3,0.3c1,0,2.8,0,3.7,0c0.3,0,0.4-0.1,0.4-0.4
			c0-1.8,0-5.8,0-5.8h0.8c0,0,3.8,4.9,4.6,5.9c0.1,0.1,0.3,0.3,0.4,0.3c1.3,0,3.1,0,4.4,0c0.1,0,0.2-0.1,0.3-0.2
			c0-0.1,0-0.2-0.1-0.3C170.2,21.5,169.9,21.1,169.6,20.8z M165.3,11.3c-0.3,0.9-1,1.3-1.8,1.3c-0.5,0-3.4,0.1-3.4,0.1
			c0-1.4,0-2.6,0-3.9c0.1,0,0.2,0,0.2,0c0.9,0,1.7,0,2.6,0c0.9,0,1.7,0.3,2.3,1C165.4,10.2,165.4,10.8,165.3,11.3z"/>
		<path class="st0" d="M210.6,21.5l-6.7-8.5c-0.1-0.2-0.1-0.3,0-0.5c0.3-0.3,5.9-6.3,6.3-6.7c0.1-0.1,0.2-0.2,0.1-0.4
			c-0.1-0.2-0.2-0.2-0.4-0.2c-1.4,0-4.1,0-4.1,0l-6.9,7.2c0,0,0-4.6,0-6.7c0-0.4-0.2-0.5-0.5-0.5c-1.1,0-2.3,0-3.4,0
			c-0.3,0-0.5,0.2-0.5,0.5c0,5.3,0,10.7,0,16c0,0.4,0.2,0.5,0.5,0.5c1.1,0,2.2,0,3.3,0c0.4,0,0.5-0.2,0.5-0.5c0-1.2,0-2.4,0-3.6
			c0-0.1,0-0.2,0.1-0.3c0.6-0.6,1.2-1.3,1.8-1.9c0,0,4.1,5.1,4.7,5.8c0.3,0.3,0.5,0.6,1,0.5c1.2-0.1,2.5,0,3.7,0
			c0.2,0,0.4,0,0.5-0.3C210.8,21.7,210.7,21.6,210.6,21.5z"/>
		<path class="st0" d="M82.8,18.5c-2.7,0-5.3,0-8,0c-0.1,0-0.2,0-0.4,0c0-1.1,0-2.2,0-3.2c0.1,0,0.2,0,0.4,0c2.3,0,4.5,0,6.8,0
			c0.4,0,0.5-0.2,0.5-0.5c0-0.8,0-1.7,0-2.5c0-0.4-0.2-0.5-0.5-0.5c-2.3,0-4.5,0-6.8,0c-0.1,0-0.2,0-0.3,0c0-1,0-2,0-3
			c0.1,0,0.3,0,0.4,0c2.6,0,5.2,0,7.7,0c0.4,0,0.5-0.1,0.5-0.5c0-0.9,0-1.8,0-2.7c0-0.4-0.1-0.5-0.5-0.5c-4,0-8,0-12,0
			c-0.4,0-0.6,0.2-0.6,0.5c0,5.3,0,10.7,0,16c0,0.4,0.2,0.5,0.5,0.5c4.1,0,8.2,0,12.3,0c0.3,0,0.5-0.2,0.5-0.5c0-0.9,0-1.7,0-2.6
			C83.4,18.7,83.2,18.5,82.8,18.5z"/>
		<path class="st0" d="M144.1,5.1h-4.2c0,0-6.7,15-7.3,16.5c-0.1,0.3,0,0.6,0.4,0.6c1.3,0,2.6,0,3.9,0c0.4-1.1,0.9-2.1,1.3-3.2
			c0.1-0.3,0.3-0.4,0.6-0.4c2.2,0,4.3,0,6.5,0c0.3,0,0.4,0.1,0.5,0.3c0.1,0.3,0.2,0.6,0.3,0.8c0.3,0.7,0.6,1.5,0.9,2.2
			c0,0.1,0.1,0.2,0.2,0.2c1.1,0,2.6,0,3.9,0c0.2,0,0.4-0.3,0.3-0.5C151.1,20.9,144.1,5.1,144.1,5.1z M139.8,15.1
			c0.7-1.7,1.4-3.5,2.2-5.2c0.7,1.8,1.4,3.5,2.2,5.2C142.7,15.1,141.3,15.1,139.8,15.1z"/>
		<path class="st0" d="M63.8,13.4c-1-0.7-2.1-1-3.2-1.3c-1.2-0.3-2.3-0.6-3.5-0.9c-0.4-0.1-0.9-0.4-1-0.8c-0.2-0.7,0.1-1.3,0.8-1.6
			c1.1-0.5,2.2-0.4,3.3-0.2c1,0.2,2,0.6,2.9,1.1c0.3,0.1,0.5,0.1,0.6-0.2c0.4-1,0.8-2,1.2-3c-1.3-0.8-3.7-1.5-5.7-1.6
			c-1-0.1-3.5,0.1-5.2,1.1c-1.1,0.6-1.8,1.5-2.2,2.7c-0.3,0.8-0.3,1.6-0.2,2.5c0.1,0.8,0.4,1.5,1,2.1c0.7,0.8,1.6,1.2,2.5,1.5
			c1.1,0.3,2.3,0.6,3.5,0.9c0.7,0.2,1.4,0.3,1.9,0.7c0.6,0.4,0.7,1,0.4,1.5c-0.2,0.3-0.5,0.5-0.9,0.6c-1.3,0.4-2.5,0.3-3.8,0
			c-1.2-0.3-2.2-0.7-3.2-1.4c-0.2-0.1-0.5,0-0.6,0.2c-0.4,1-0.9,1.9-1.3,2.9c0.1,0.1,0.2,0.1,0.2,0.2c0.5,0.3,1.1,0.7,1.6,0.9
			c1.4,0.6,2.8,0.9,4.3,1c0.7,0,1.5,0,2.2-0.1c1.2-0.1,2.4-0.4,3.5-1c0.8-0.5,1.5-1.1,2-2c0.5-1,0.6-2,0.5-3.1
			C65.3,15,64.7,14.1,63.8,13.4z"/>
		<path class="st0" d="M180.5,9.4c1-0.6,2-0.8,3.1-0.7c1.4,0.1,2.6,0.7,3.5,1.7c0.1,0.2,0.4,0.2,0.6,0.1c0.8-0.8,1.7-1.5,2.6-2.4
			c-0.4-0.5-0.7-0.8-1.1-1.1c-3.9-3.6-12.3-2.8-14.7,3.1c-2.1,5.3,0.8,10.9,6,12.1c6,1.1,8.8-1.8,9.5-2.7c0.2-0.2,0.2-0.3,0-0.4
			c-0.8-0.7-1.5-1.4-2.2-2.1c-0.3-0.3-0.5-0.3-0.8,0c-0.6,0.6-1.2,1.1-2,1.4c-1,0.4-1.9,0.4-2.9,0.2c-1.4-0.3-2.5-1-3.2-2.3
			c-0.7-1.3-0.8-2.7-0.4-4.1C178.8,10.9,179.5,10,180.5,9.4z"/>
	</g>
	<g>
		<path class="st0" d="M79.9,35.2l-7.9-9.6l-3,0c0,0,0,10.6,0,15.8c1.2,0,2.4,0,3.6,0c0-3.2,0-9.5,0-9.5l7.9,9.5h3
			c0,0,0-10.5,0-15.8c-1.2,0-2.4,0-3.6,0C79.9,28.8,79.9,35.2,79.9,35.2z"/>
		<path class="st0" d="M114.1,35.2c1.6-0.2,2.9-1.1,3.6-2.6c0.5-1,0.5-2.2,0.4-3.3c-0.2-1.6-1.1-2.8-2.6-3.5
			c-0.8-0.4-1.6-0.4-2.4-0.4l-7.7,0c0,5.3,0,10.6,0,16c1.2,0,2.4,0,3.6,0c0-2,0-6,0-6h0.7l4.9,6l4.3,0l-5-6.2
			C114,35.2,114,35.2,114.1,35.2z M111.4,32.7c-0.8,0-2.5,0-2.5,0c0-1.5,0-4.5,0-4.5s2.7-0.1,4,0.1c1,0.1,1.7,1,1.8,1.9
			c0.1,1.3-0.6,2.1-1.5,2.3C112.6,32.6,112,32.7,111.4,32.7z"/>
		<path class="st0" d="M129.6,32.8v2.7c0,0,3.1,0,3.7,0v1.9c0,0.1-0.1,0.2-0.2,0.2c-1,0.7-2.1,1.1-3.3,1.2c-2.2,0.2-4-1-4.6-3.1
			c-0.5-1.6-0.5-3.2-0.1-4.9c0.3-1.1,0.9-2,1.9-2.6c1-0.6,2.1-0.7,3.2-0.5c0.9,0.1,1.6,0.5,2.2,1.2c0.3,0.4,0.5,0.8,0.8,1.3
			c1-0.2,2.1-0.4,3.2-0.6c-0.5-2.1-1.7-3.6-3.8-4.3c-1.5-0.5-3-0.6-4.5-0.4c-2.5,0.3-4.4,1.5-5.6,3.7c-1.3,2.6-1.3,6-0.3,8.5
			c0.8,2.1,2.4,3.4,4.5,4c1.7,0.5,3.4,0.5,5.2,0.2c1.6-0.4,3.1-1,4.4-2c0.2-0.1,0.2-0.3,0.2-0.5c0-1.9,0-6.2,0-6.2H129.6z"/>
		<path class="st0" d="M56.3,34.9c2.5,0,4.9,0,7.3,0c0-1,0-1.9,0-2.9c-2.5,0-4.9,0-7.3,0c0-1.2,0-2.3,0-3.4c2.8,0,5.5,0,8.3,0
			c0-1,0-2,0-2.9c-4,0-8,0-11.9,0c0,5.3,0,10.5,0,15.8c4.1,0,8.2,0,12.2,0c0-1,0-1.9,0-2.9c-2.9,0-5.7,0-8.6,0
			C56.3,37.3,56.3,36.1,56.3,34.9z"/>
		<path class="st0" d="M92.2,34.8c2.5,0,4.9,0,7.3,0c0-1,0-1.9,0-2.9c-2.5,0-4.9,0-7.3,0c0-1.2,0-2.3,0-3.4c2.8,0,5.5,0,8.3,0
			c0-1,0-2,0-2.9c-4,0-11.9,0-11.9,0v15.8h12.2v-2.9c0,0-5.7,0-8.6,0C92.2,37.3,92.2,36.1,92.2,34.8z"/>
		<path class="st0" d="M151.4,25.6c-0.1,0-0.2,0.1-0.3,0.2c-0.6,1-1.2,2.1-1.9,3.1c-0.7,1.2-1.5,2.5-2.2,3.7
			c-0.1-0.1-0.1-0.2-0.2-0.3c-1.3-2.2-2.6-4.3-3.9-6.5c-0.1-0.2-0.2-0.3-0.5-0.3h-3.6c0,0,4,6.7,5.9,9.8c0.2,0.3,0.2,0.5,0.2,0.8
			c0,1.6,0,3.2,0,4.9c0,0.1,0,0.2,0,0.3c1.2,0,2.4,0,3.7,0c0-0.1,0-0.2,0-0.3c0-1.7,0-3.3,0-5c0-0.2,0.1-0.4,0.1-0.5
			c1.9-3.1,6-10,6-10S152.5,25.6,151.4,25.6z"/>
	</g>
</g>
</svg>
