<?xml version="1.0" encoding="utf-8"?>
<!-- Generator: Adobe Illustrator 28.2.0, SVG Export Plug-In . SVG Version: 6.00 Build 0)  -->
<svg version="1.1" id="Layer_1" xmlns="http://www.w3.org/2000/svg" xmlns:xlink="http://www.w3.org/1999/xlink" x="0px" y="0px"
	 viewBox="0 0 203.5 144.3" style="enable-background:new 0 0 203.5 144.3;" xml:space="preserve">
<style type="text/css">
	.st0{fill:#646463;}
	.st1{fill:url(#SVGID_1_);}
	.st2{fill:url(#SVGID_00000078044842583976665390000015770502771376332171_);}
	.st3{fill:url(#SVGID_00000140722249729662882710000000104253931576902579_);}
	.st4{fill:url(#SVGID_00000127042534005416814930000017534886337214743975_);}
	.st5{fill:url(#SVGID_00000146460894585713398700000011830947324832317621_);}
	.st6{fill:url(#SVGID_00000089573277772497090800000015307992074565502604_);}
	.st7{fill:url(#SVGID_00000167392168393202231440000001126100781279378571_);}
	.st8{fill:url(#SVGID_00000145740065618863685010000005506041418505072305_);}
	.st9{fill:url(#SVGID_00000098916630221768423970000018244890656340371359_);}
	.st10{fill:url(#SVGID_00000044865729743809855630000012313922885227552185_);}
	.st11{fill:url(#SVGID_00000076586394290041385410000012987533297324354702_);}
	.st12{fill:url(#SVGID_00000138542867545901751460000015807006832904736640_);}
	.st13{fill:url(#SVGID_00000139296336325584206550000001473079513666074045_);}
	.st14{fill:url(#SVGID_00000003795251817615462290000015937681007160325004_);}
</style>
<g id="Layer_7">
	<g>
		<path class="st0" d="M25.7,103.2H5.4v8h18c2.6,0,4.3,0.5,5.2,1.4c0.9,0.9,1.4,2.7,1.4,5.3v3.2c0,2.6-0.5,4.4-1.4,5.4
			c-0.9,0.9-2.7,1.4-5.3,1.4H6.7c-2.6,0-4.4-0.5-5.3-1.4c-0.9-1-1.4-2.7-1.4-5.4v-0.8l4.4-1v4.6h21.4v-8.6h-18
			c-2.6,0-4.4-0.5-5.3-1.4s-1.4-2.7-1.4-5.4V106c0-2.6,0.5-4.4,1.4-5.4s2.7-1.4,5.3-1.4H23c2.6,0,4.3,0.5,5.3,1.4s1.5,2.6,1.5,4.9
			v0.6l-4.1,1.2C25.7,107.3,25.7,103.2,25.7,103.2z"/>
		<path class="st0" d="M44.2,106.1c0-2.6,0.5-4.4,1.4-5.4s2.7-1.4,5.3-1.4h19.8c2.6,0,4.4,0.5,5.3,1.4c0.9,1,1.4,2.7,1.4,5.4v15.1
			c0,2.6-0.5,4.4-1.4,5.4c-0.9,0.9-2.7,1.4-5.3,1.4H50.9c-2.6,0-4.4-0.5-5.3-1.4c-0.9-1-1.4-2.7-1.4-5.4V106.1z M49,123.9h23.8
			v-20.8H49V123.9z"/>
		<path class="st0" d="M92,127.9V99.3h4.8V124h21.7v4H92V127.9z"/>
		<path class="st0" d="M123.8,127.9l15.7-28.7h5.1l15.9,28.7h-5.3l-3.7-7.1h-19.4l-3.7,7.1H123.8z M134.2,117.2h15.4l-7.7-14.7
			L134.2,117.2z"/>
		<path class="st0" d="M169.8,127.9V99.3h23.1c2.2,0,3.7,0.4,4.7,1.3s1.4,2.3,1.4,4.3v6.4c0,1.9-0.5,3.4-1.4,4.2
			c-1,0.9-2.5,1.3-4.7,1.3h-4.2l13.1,11.2h-7.1L183,116.8h-8.4V128h-4.8V127.9z M191,103h-16.4v10H191c1.2,0,2-0.2,2.4-0.6
			s0.7-1.2,0.7-2.3v-4.2c0-1.1-0.2-1.8-0.7-2.3C193,103.2,192.2,103,191,103z"/>
	</g>
</g>
<g id="Layer_6">
	<g>
		
			<linearGradient id="SVGID_1_" gradientUnits="userSpaceOnUse" x1="34.3202" y1="288.4281" x2="124.3216" y2="455.0977" gradientTransform="matrix(1 0 0 1 0 -336)">
			<stop  offset="0" style="stop-color:#FFFFFF"/>
			<stop  offset="0.3371" style="stop-color:#FFD300"/>
			<stop  offset="1" style="stop-color:#E56606"/>
		</linearGradient>
		<polygon class="st1" points="56.9,0 53.5,3.5 53.5,24.8 56.9,28.3 78.3,28.3 81.8,24.8 81.8,3.5 78.3,0 		"/>
		
			<linearGradient id="SVGID_00000137115099702117641090000018420380974754789555_" gradientUnits="userSpaceOnUse" x1="57.5482" y1="275.8872" x2="147.5473" y2="442.5526" gradientTransform="matrix(1 0 0 1 0 -336)">
			<stop  offset="0" style="stop-color:#FFFFFF"/>
			<stop  offset="0.3371" style="stop-color:#FFD300"/>
			<stop  offset="1" style="stop-color:#E56606"/>
		</linearGradient>
		<polygon style="fill:url(#SVGID_00000137115099702117641090000018420380974754789555_);" points="86.9,0 83.5,3.5 83.5,24.8 
			86.9,28.3 108.3,28.3 111.8,24.8 111.8,3.5 108.3,0 		"/>
		
			<linearGradient id="SVGID_00000103244395442357312070000006996544668571694250_" gradientUnits="userSpaceOnUse" x1="80.7739" y1="263.3422" x2="170.7753" y2="430.0118" gradientTransform="matrix(1 0 0 1 0 -336)">
			<stop  offset="0" style="stop-color:#FFFFFF"/>
			<stop  offset="0.3371" style="stop-color:#FFD300"/>
			<stop  offset="1" style="stop-color:#E56606"/>
		</linearGradient>
		<polygon style="fill:url(#SVGID_00000103244395442357312070000006996544668571694250_);" points="116.9,0 113.5,3.5 113.5,24.8 
			116.9,28.3 138.3,28.3 141.8,24.8 141.8,3.5 138.3,0 		"/>
		
			<linearGradient id="SVGID_00000025418617859437667430000003240238418076109493_" gradientUnits="userSpaceOnUse" x1="21.6511" y1="295.2668" x2="111.6526" y2="461.9364" gradientTransform="matrix(1 0 0 1 0 -336)">
			<stop  offset="0" style="stop-color:#FFFFFF"/>
			<stop  offset="0.3371" style="stop-color:#FFD300"/>
			<stop  offset="1" style="stop-color:#E56606"/>
		</linearGradient>
		<polygon style="fill:url(#SVGID_00000025418617859437667430000003240238418076109493_);" points="56.9,30.3 53.5,33.8 53.5,55.1 
			56.9,58.6 78.3,58.6 81.8,55.1 81.8,33.8 78.3,30.3 		"/>
		
			<linearGradient id="SVGID_00000136373823882492909600000004609211237192525961_" gradientUnits="userSpaceOnUse" x1="44.8808" y1="282.7291" x2="134.88" y2="449.3945" gradientTransform="matrix(1 0 0 1 0 -336)">
			<stop  offset="0" style="stop-color:#FFFFFF"/>
			<stop  offset="0.3371" style="stop-color:#FFD300"/>
			<stop  offset="1" style="stop-color:#E56606"/>
		</linearGradient>
		<polygon style="fill:url(#SVGID_00000136373823882492909600000004609211237192525961_);" points="86.9,30.3 83.5,33.8 83.5,55.1 
			86.9,58.6 108.3,58.6 111.8,55.1 111.8,33.8 108.3,30.3 		"/>
		
			<linearGradient id="SVGID_00000005253942441458715450000005616068263453054377_" gradientUnits="userSpaceOnUse" x1="68.1064" y1="270.1839" x2="158.1079" y2="436.8536" gradientTransform="matrix(1 0 0 1 0 -336)">
			<stop  offset="0" style="stop-color:#FFFFFF"/>
			<stop  offset="0.3371" style="stop-color:#FFD300"/>
			<stop  offset="1" style="stop-color:#E56606"/>
		</linearGradient>
		<polygon style="fill:url(#SVGID_00000005253942441458715450000005616068263453054377_);" points="116.9,30.3 113.5,33.8 
			113.5,55.1 116.9,58.6 138.3,58.6 141.8,55.1 141.8,33.8 138.3,30.3 		"/>
		
			<linearGradient id="SVGID_00000091722479212779660350000006783839458189901484_" gradientUnits="userSpaceOnUse" x1="8.9838" y1="302.1086" x2="98.9852" y2="468.7782" gradientTransform="matrix(1 0 0 1 0 -336)">
			<stop  offset="0" style="stop-color:#FFFFFF"/>
			<stop  offset="0.3371" style="stop-color:#FFD300"/>
			<stop  offset="1" style="stop-color:#E56606"/>
		</linearGradient>
		<polygon style="fill:url(#SVGID_00000091722479212779660350000006783839458189901484_);" points="56.9,60.6 53.5,64.1 53.5,85.4 
			56.9,88.9 78.3,88.9 81.8,85.4 81.8,64.1 78.3,60.6 		"/>
		
			<linearGradient id="SVGID_00000002375223639081223920000009966873648874198157_" gradientUnits="userSpaceOnUse" x1="32.2119" y1="289.568" x2="122.2127" y2="456.2365" gradientTransform="matrix(1 0 0 1 0 -336)">
			<stop  offset="0" style="stop-color:#FFFFFF"/>
			<stop  offset="0.3371" style="stop-color:#FFD300"/>
			<stop  offset="1" style="stop-color:#E56606"/>
		</linearGradient>
		<polygon style="fill:url(#SVGID_00000002375223639081223920000009966873648874198157_);" points="86.9,60.6 83.5,64.1 83.5,85.4 
			86.9,88.9 108.3,88.9 111.8,85.4 111.8,64.1 108.3,60.6 		"/>
		
			<linearGradient id="SVGID_00000003793072257839804730000001328219637232383112_" gradientUnits="userSpaceOnUse" x1="55.4391" y1="277.0258" x2="145.4388" y2="443.6923" gradientTransform="matrix(1 0 0 1 0 -336)">
			<stop  offset="0" style="stop-color:#FFFFFF"/>
			<stop  offset="0.3371" style="stop-color:#FFD300"/>
			<stop  offset="1" style="stop-color:#E56606"/>
		</linearGradient>
		<polygon style="fill:url(#SVGID_00000003793072257839804730000001328219637232383112_);" points="116.9,60.6 113.5,64.1 
			113.5,85.4 116.9,88.9 138.3,88.9 141.8,85.4 141.8,64.1 138.3,60.6 		"/>
	</g>
</g>
<g id="Layer_5">
	<g>
		<g>
			<path class="st0" d="M1.8,135.7c0,0.2,0,0.4,0.1,0.6c0,0.2,0,0.5,0,0.9v6.9H0.4v-10.2h1.4l5,6.7l4.6-6.7H13v10.2h-1.6v-6.9
				c0-0.1,0-0.3,0-0.7s0-0.6,0-0.8c-0.1,0.3-0.2,0.5-0.3,0.7s-0.2,0.3-0.3,0.4L7,142.5H6.6L2.5,137c0,0,0,0,0-0.1
				C2.2,136.5,2,136.1,1.8,135.7z"/>
			<path class="st0" d="M32.7,144.2l5.6-10.2h1.8l5.7,10.2h-1.9l-1.3-2.5h-6.9l-1.3,2.5H32.7z M36.4,140.3h5.5l-2.8-5.2L36.4,140.3z
				"/>
			<path class="st0" d="M65.4,144.2V134h1.1l7.7,6.9c0.2,0.2,0.4,0.3,0.6,0.6c0.2,0.2,0.4,0.5,0.6,0.7c-0.1-0.3-0.1-0.7-0.1-1
				c0-0.4,0-0.9,0-1.5v-5.6h1.6v10.2h-1l-7.9-7.1c0,0-0.1-0.1-0.2-0.2c-0.4-0.3-0.7-0.7-0.9-1c0,0.3,0.1,0.6,0.1,1s0,0.8,0,1.2v6
				L65.4,144.2L65.4,144.2z"/>
			<path class="st0" d="M96.4,144.2L102,134h1.8l5.7,10.2h-1.9l-1.3-2.5h-6.9l-1.3,2.5H96.4z M100.1,140.3h5.5l-2.8-5.2L100.1,140.3
				z"/>
			<path class="st0" d="M138.7,135.3h-8v7.4h8v-3h-4.2v-1.3h5.9v3.3c0,0.9-0.2,1.6-0.5,1.9c-0.3,0.3-1,0.5-1.9,0.5h-6.6
				c-0.9,0-1.6-0.2-1.9-0.5c-0.3-0.3-0.5-1-0.5-1.9v-5.4c0-0.9,0.2-1.6,0.5-1.9c0.3-0.3,1-0.5,1.9-0.5h6.6c0.9,0,1.6,0.2,1.9,0.5
				c0.3,0.3,0.5,0.9,0.5,1.8v0.2l-1.7,0.3V135.3z"/>
			<path class="st0" d="M161.6,144.2V134h9.9v1.4h-8.2v2.9h5v1.3h-5v3.2h8.2v1.4L161.6,144.2L161.6,144.2z"/>
			<path class="st0" d="M192,144.2V134h8.3c0.8,0,1.3,0.2,1.7,0.5c0.3,0.3,0.5,0.8,0.5,1.5v2.3c0,0.7-0.2,1.2-0.5,1.5
				s-0.9,0.5-1.7,0.5h-1.5l4.7,4H201l-4.2-4h-3v4H192V144.2z M199.6,135.2h-5.9v3.6h5.9c0.4,0,0.7-0.1,0.9-0.2
				c0.2-0.2,0.2-0.4,0.2-0.8v-1.5c0-0.4-0.1-0.7-0.2-0.8C200.3,135.3,200,135.2,199.6,135.2z"/>
		</g>
	</g>
</g>
<g id="Layer_3">
	<g>
		
			<linearGradient id="SVGID_00000074408905748761891010000008711647221926808724_" gradientUnits="userSpaceOnUse" x1="-3265.2476" y1="-1054.7833" x2="-3141.0315" y2="-965.1315" gradientTransform="matrix(-1 0 0 -1 -3086.4231 -943.0914)">
			<stop  offset="0.1517" style="stop-color:#EBEBEB"/>
			<stop  offset="0.8595" style="stop-color:#5F5F5E"/>
		</linearGradient>
		<path style="fill:url(#SVGID_00000074408905748761891010000008711647221926808724_);" d="M109.6,54.7c0,0-2.9,12.6-13,26.8
			l-3.2-3.4c0,0-21.4,12.4-38.3,3.8c0,0-12.4-9-14-10.3c-1.6-1.3-4.9-5.9-2.2-14.9S56.8,22.4,88,9.9c31-12.4,36.5,5.6,36.9,7.6
			c0,0-3.8-8.1-13-8.3s-24.7,2.2-44.8,20.5C46.9,48,46.6,66,49.6,71.4c0,0,10.8,2.2,28.4-9.4l-2.3-2.3l-0.5-3.2
			c0,0,18.2-0.2,31.7-3.6L109.6,54.7z"/>
		
			<linearGradient id="SVGID_00000060718888820564403380000003096896353638675641_" gradientUnits="userSpaceOnUse" x1="-3180.7561" y1="-916.1935" x2="-3178.0562" y2="-1028.514" gradientTransform="matrix(-1 0 0 -1 -3086.4231 -943.0914)">
			<stop  offset="0.1517" style="stop-color:#EBEBEB"/>
			<stop  offset="0.8595" style="stop-color:#5F5F5E"/>
		</linearGradient>
		<path style="fill:url(#SVGID_00000060718888820564403380000003096896353638675641_);" d="M106.9,52.9c-13.5,3.4-31.7,3.6-31.7,3.6
			l0.5,3.2c19.9-0.9,31.1-4.2,33.8-5L106.9,52.9z"/>
		
			<linearGradient id="SVGID_00000116951667973107977780000013280365926999419064_" gradientUnits="userSpaceOnUse" x1="-3073.5852" y1="-935.4972" x2="-3203.2" y2="-1002.4648" gradientTransform="matrix(-1 0 0 -1 -3086.4231 -943.0914)">
			<stop  offset="0.1517" style="stop-color:#EBEBEB"/>
			<stop  offset="0.8595" style="stop-color:#5F5F5E"/>
		</linearGradient>
		<path style="fill:url(#SVGID_00000116951667973107977780000013280365926999419064_);" d="M41,71.6c0.2,0.2,0.7,0.5,1.3,1
			c14.5,7.8,37.9-7.8,37.9-7.8L78,62.1c-15.4,10-25.5,9.7-27.9,9.4c-2.1,0-6.4-0.4-9.1-3.6c-3.3-4.1-1.1-13.5,3.5-21.3
			c5.5-9.7,15.7-21.4,30.8-29.9C99.6,3.1,109.5,5.8,115,7.4c4.2,1.2,7.6,5.5,8.9,7.5c-2.5-5.2-10.9-15.1-36-5
			C56.7,22.4,41.5,47.6,38.8,56.6S39.4,70.3,41,71.6z"/>
		
			<linearGradient id="SVGID_00000018932626027548294860000005855894019716418457_" gradientUnits="userSpaceOnUse" x1="-3182.821" y1="-1035.9237" x2="-3155.2769" y2="-995.4177" gradientTransform="matrix(-1 0 0 -1 -3086.4231 -943.0914)">
			<stop  offset="0.1517" style="stop-color:#EBEBEB"/>
			<stop  offset="0.8595" style="stop-color:#5F5F5E"/>
		</linearGradient>
		<path style="fill:url(#SVGID_00000018932626027548294860000005855894019716418457_);" d="M93.4,78.1l3.2,3.4
			c9.4-13.3,12.6-25.2,12.9-26.7l-0.1-0.2c0,0-37.3,37.8-64.4,20c4.2,3.1,9.9,7.2,9.9,7.2C72,90.5,93.4,78.1,93.4,78.1z"/>
	</g>
</g>
<g id="Layer_2">
	
		<linearGradient id="SVGID_00000116928180815432763920000003764512370630504114_" gradientUnits="userSpaceOnUse" x1="49.3979" y1="280.2866" x2="139.3968" y2="446.9516" gradientTransform="matrix(1 0 0 1 0 -336)">
		<stop  offset="0" style="stop-color:#FFFFFF"/>
		<stop  offset="0.3371" style="stop-color:#FFD300"/>
		<stop  offset="1" style="stop-color:#E56606"/>
	</linearGradient>
	<path style="fill:url(#SVGID_00000116928180815432763920000003764512370630504114_);" d="M56.9,0l-2.2,2.2l-1.2,2v20.6l3.5,3.5
		h21.3l3.5-3.5V3.5L78.3,0H56.9z M56.9,30.3l-3.5,3.5v21.3l0.4,0.4l27.9-6.2V33.8l-3.5-3.5H56.9z M135.5,1.6L132.1,0h-15.2l-3.4,3.5
		v21.3l3.5,3.5h21.3l3.5-3.5V12L135.5,1.6z M116.9,30.3l-3.5,3.5v8.5l28.3-6.3v-2.2l-3.5-3.5H116.9z M86.9,0l-3.4,3.5v21.3l3.5,3.5
		h21.3l3.5-3.5V3.5L108.3,0H86.9z M86.9,30.3l-3.5,3.5V49l28.3-6.3v-8.9l-3.5-3.5C108.2,30.3,86.9,30.3,86.9,30.3z"/>
</g>
</svg>
