<?xml version="1.0" encoding="utf-8"?>
<!-- Generator: Adobe Illustrator 28.2.0, SVG Export Plug-In . SVG Version: 6.00 Build 0)  -->
<svg version="1.1" id="Ebene_1" xmlns="http://www.w3.org/2000/svg" xmlns:xlink="http://www.w3.org/1999/xlink" x="0px" y="0px"
	 viewBox="0 0 188.6 43.2" style="enable-background:new 0 0 188.6 43.2;" xml:space="preserve">
<style type="text/css">
	.st0{fill:#2F529F;}
</style>
<g>
	<polygon class="st0" points="19.1,22 0,11 19.1,0 38.1,11 	"/>
	<path class="st0" d="M3.1,23.8v-3.3c0-0.1,0.1-0.2,0.2-0.1l14.1,8.2V25L0,14.8v10.9l14.2,8.1c0.1,0.1,0.2,0.2,0.2,0.4v3.3
		c0,0.1-0.1,0.2-0.2,0.1L0,29.6v3.6l17.5,10v-11L3.3,24.1C3.2,24,3.1,23.9,3.1,23.8z"/>
	<path class="st0" d="M38.1,18.4v-3.6L20.7,24.9v18.3l17.5-10.1v-3.6L24,37.7c-0.1,0.1-0.2,0-0.2-0.1v-3.3c0-0.1,0.1-0.3,0.2-0.4
		l14.2-8.2v-3.6L24,30.3c-0.1,0.1-0.2,0-0.2-0.1v-3.4c0-0.1,0.1-0.2,0.1-0.2L38.1,18.4z"/>
</g>
<g>
	<path class="st0" d="M62.2,9.9C61.1,8.8,59.8,8,58.1,8c-1.6,0-2.3,0.9-2.3,1.7c0,0.8,0.7,1.2,2,1.4l1.7,0.2c4,0.6,5.7,1.8,5.7,4.5
		c0,3.3-2.6,5.4-7.1,5.4c-3.6,0-5.5-1.3-7.1-3.1l2.9-1.9c1,1.3,2.8,2,4.5,2c1.1,0,2.9-0.5,2.9-1.8c0-1.1-1.3-1.4-2.7-1.6l-1.8-0.2
		c-2.7-0.4-5-1.7-5-4.4c0-3.1,2.3-5.2,6.3-5.2c3.3,0,5.3,1.5,6.8,2.9L62.2,9.9z"/>
	<path class="st0" d="M68.9,5.3h11.5v3h-7.6v2.8h7.1v2.9h-7.1v3.7h8.3v3.1H68.9V5.3z"/>
	<path class="st0" d="M93.9,20.8l-5.5-9.3v9.3h-3.7V5.3h3.8l5.5,9.5V5.3h3.7v15.5H93.9z"/>
	<path class="st0" d="M115.6,20.8c0,0,0-8.6,0.1-11.6l-3.2,11.6H109l-3.2-11.6c0.1,2.2,0.1,11.6,0.1,11.6h-3.8V5.3h5.7l2.9,10.9
		l2.9-10.9h5.7v15.5H115.6z"/>
	<path class="st0" d="M133.5,20.8l-0.8-2.5H127l-0.8,2.5h-4.1l5.8-15.5h4l5.7,15.5H133.5z M129.9,9l-1.9,6.6h3.9L129.9,9z"/>
	<path class="st0" d="M147.8,5.3c2.3,0,6,0.6,6,5c0,2.6-1.5,3.7-3.2,4.3l3.6,6.2h-4.3l-3.1-5.5h-2.4v5.5h-3.9V5.3H147.8z
		 M144.4,12.4h3.2c2.2,0,2.3-1.7,2.3-2.2c0-2-1.6-2.1-2.3-2.1h-3.2V12.4z"/>
	<path class="st0" d="M170.7,17.3c-1.2,2.2-3.5,4-6.7,4c-4.1,0-7.4-3-7.4-8.3c0-4.6,3.1-8.2,7.5-8.2c2.9,0,5.5,1.7,6.6,4l-3.1,1.5
		c-0.3-1.2-1.7-2.4-3.3-2.4c-2.5,0-3.8,2.3-3.8,4.9c0,3.4,1.7,5.1,3.8,5.1c2,0,2.8-1.4,3.4-2.3L170.7,17.3z"/>
	<path class="st0" d="M184.2,20.8l-4.1-7l-2.4,2.5v4.6h-3.7V5.3h3.7v6.3l5.8-6.3h4.7l-5.5,5.8l5.9,9.8H184.2z"/>
	<path class="st0" d="M52.4,25.3h11.5v3h-7.6v2.8h7.1v2.9h-7.1v3.7h8.3v3.1H52.4V25.3z"/>
	<path class="st0" d="M77.4,40.8l-5.5-9.3v9.3h-3.7V25.3h3.8l5.5,9.5v-9.5h3.7v15.5H77.4z"/>
	<path class="st0" d="M85.6,25.3h11.5v3h-7.6v2.8h7.1v2.9h-7.1v3.7h8.3v3.1H85.6V25.3z"/>
	<path class="st0" d="M108.7,25.3c2.3,0,6,0.6,6,5c0,2.6-1.5,3.7-3.2,4.3l3.6,6.2h-4.3l-3.1-5.5h-2.4v5.5h-3.9V25.3H108.7z
		 M105.3,32.4h3.2c2.2,0,2.3-1.7,2.3-2.2c0-2-1.6-2.1-2.3-2.1h-3.2V32.4z"/>
	<path class="st0" d="M129,30.2c-0.5-1.1-1.8-2.2-3.6-2.2c-2.5,0-4,1.8-4,5c0,1.8,0.5,5.1,4.1,5.1c1.4,0,3.3-0.7,3.4-2.9h-3.5v-2.9
		h6.8v8.6h-3v-1.4c-1.9,1.7-3.7,1.8-4.6,1.8c-4.8,0-7-4.2-7-8.1c0-3.7,2.2-8.3,7.7-8.3c4.1,0,6.2,2.8,6.8,3.6L129,30.2z"/>
	<path class="st0" d="M143.3,33.5v7.3h-3.8v-7.2l-5.8-8.3h4.4l3.3,5.3l3.3-5.3h4.4L143.3,33.5z"/>
</g>
</svg>
