<?xml version="1.0" encoding="utf-8"?>
<!-- Generator: Adobe Illustrator 28.2.0, SVG Export Plug-In . SVG Version: 6.00 Build 0)  -->
<svg version="1.1" id="Ebene_1" xmlns="http://www.w3.org/2000/svg" xmlns:xlink="http://www.w3.org/1999/xlink" x="0px" y="0px"
	 viewBox="0 0 13.4 17.2" style="enable-background:new 0 0 13.4 17.2;" xml:space="preserve">
<style type="text/css">
	.st0{fill:#8FD46E;}
</style>
<path class="st0" d="M5.7,11.2l4.8-4.8L9.9,6l-4.3,4.2L3.5,8.1L3,8.6L5.7,11.2z M6.7,17.2c-1.9-0.6-3.5-1.8-4.8-3.6S0,9.9,0,7.7V2.5
	L6.7,0l6.7,2.5v5.2c0,2.2-0.6,4.2-1.9,6S8.6,16.6,6.7,17.2z M6.7,16.5c1.7-0.6,3.2-1.6,4.3-3.3s1.7-3.5,1.7-5.5V3l-6-2.2L0.7,3v4.7
	c0,2,0.6,3.8,1.7,5.5S5,15.9,6.7,16.5z"/>
</svg>
