<?xml version="1.0" encoding="utf-8"?>
<!-- Generator: Adobe Illustrator 28.2.0, SVG Export Plug-In . SVG Version: 6.00 Build 0)  -->
<svg version="1.1" id="Ebene_1" xmlns="http://www.w3.org/2000/svg" xmlns:xlink="http://www.w3.org/1999/xlink" x="0px" y="0px"
	 viewBox="0 0 248 42" style="enable-background:new 0 0 248 42;" xml:space="preserve">
<style type="text/css">
	.st0{fill:#2B453F;}
</style>
<g>
	<g>
		<path class="st0" d="M14.7,14.2c2.8-0.3,5.5-0.6,8.3-0.9v5.9c0.1,0,0.2,0.1,0.3,0.1c0.2-0.3,0.5-0.6,0.7-0.9
			c2.7-3.9,6.5-5.4,11.1-5c2.6,0.2,4.6,1.6,5.5,4.1c0.4,1.2,0.6,2.5,0.8,3.7c0.1,1.2,0.1,2.4,0,3.7c-0.1,5,0.5,10,1.3,14.9
			c0.1,0.4,0.1,0.7,0.1,1.2c-2.7,0.5-5.5,0.5-8.3,0.9c0-0.6-0.1-1.2-0.1-1.7c0-5.8,0-11.5-0.1-17.3c0-1.2-0.2-2.5-0.6-3.6
			c-0.9-2.5-3.1-3.2-5.4-1.9c-1.2,0.7-2.2,1.8-2.9,3c-0.8,1.5-1.5,3.1-2.1,4.8c-0.2,0.5-0.2,1-0.2,1.5c0,4.3,0.6,8.5,1.2,12.7
			c0.1,0.5,0.1,1,0.2,1.7c-2.8,0.3-5.5,0.5-8.4,0.8c0-3.2,0-6.2,0-9.3c0-3.1,0-6.1-0.2-9.2C15.6,20.4,15.1,17.4,14.7,14.2L14.7,14.2
			z"/>
		<path class="st0" d="M248,41.1c-2.9,0.3-5.6,0.5-8.4,0.8V38c-0.4,0.4-0.7,0.6-0.9,0.8c-1.4,1.9-3.4,2.9-5.6,3
			c-1.7,0.1-3.5,0-5.1-0.4c-4.6-1.1-6.4-6.3-3.6-10.2c1-1.4,2.3-2.4,3.7-3.2c2.1-1.1,4.3-1.7,6.6-2.3c1-0.3,2.1-0.6,3-1.1
			c1.4-0.7,2.1-2,1.9-3.6c-0.1-0.9-0.1-1.9-0.4-2.8c-0.6-2-2.4-3-4.4-2.6c-0.9,0.2-1.8,0.6-2.5,1.1c-1.7,1.3-3.2,2.7-4.8,4.1
			c-0.7,0.6-1.3,1.2-2.1,2.1c-0.4-2.8-0.8-5.4-1.2-8.1c1.2-0.3,2.4-0.6,3.6-0.8c3.4-0.7,6.8-1,10.2-0.8c0.8,0,1.6,0.2,2.3,0.3
			c4,0.9,6,3.3,6.3,7.4c0.1,1.1,0.1,2.2,0,3.3c-0.1,5.3,0.4,10.6,1.3,15.9C248,40.4,248,40.7,248,41.1z M239.5,26.1
			c-1.3,0.6-2.4,1.2-3.7,1.6c-3.5,1.2-5.1,4.2-4.5,8.3c0.4,2.5,2.5,3.5,4.7,2.3c2-1.1,3.2-2.8,3.4-5C239.7,31,239.5,28.5,239.5,26.1
			L239.5,26.1z"/>
		<path class="st0" d="M172.2,26.9c-5.9,1.3-11.7,2.6-17.4,3.9c0.9,5.3,4.7,7.9,9.9,6.9c2-0.4,3.9-1.1,5.6-2.3
			c0.2-0.2,0.5-0.3,0.8-0.5c0.5,0.4,0.9,0.8,1.4,1.3c-0.3,0.3-0.5,0.6-0.7,0.9c-2.7,2.9-6.2,4.1-9.9,4.6c-2,0.3-4,0.4-6,0
			c-4.1-0.8-7.1-3.1-8.7-7c-2.2-5.5-1.8-10.8,1.7-15.7c3.2-4.5,7.6-6.4,13-5.6c0.6,0.1,1.1,0.2,1.6,0.3c4.6,1,7.4,4.1,8.3,9.1
			c0.1,0.8,0.2,1.7,0.3,2.5C172.2,25.6,172.2,26.2,172.2,26.9L172.2,26.9z M164.6,25.4c-0.1-0.9-0.1-1.7-0.2-2.5
			c-0.3-2.3-1-4.4-2.6-6.1c-1.6-1.7-3.9-1.7-5.4,0c-0.7,0.9-1.3,1.9-1.7,3c-0.8,2.2-0.9,4.5-0.8,6.8c0,0.3,0.2,0.7,0.3,1.1
			C157.7,26.9,161,26.2,164.6,25.4L164.6,25.4z"/>
		<path class="st0" d="M81.9,30.8c0.1,0.5,0.2,0.8,0.3,1.1c1.5,4.5,4.3,6.6,9.9,5.7c1.1-0.2,2.3-0.6,3.3-1c1-0.4,2-1.1,3-1.7
			c0.4,0.3,0.8,0.7,1.4,1.2c-0.3,0.3-0.4,0.6-0.7,0.9c-1.7,1.8-3.8,3.1-6.2,3.8c-2.8,0.8-5.7,1.3-8.7,0.9C79,41,75.6,38.2,74,33.1
			c-1.5-5.1-0.9-10,2.3-14.4c3.2-4.4,7.5-6.3,12.9-5.6c0.6,0.1,1.1,0.2,1.6,0.3c4.7,1.1,7.4,4.1,8.3,8.8c0.3,1.5,0.5,3,0.3,4.6
			C93.6,28.2,87.8,29.4,81.9,30.8L81.9,30.8z M91.9,25.4c0-2-0.2-3.8-0.9-5.4c-0.5-1.1-1-2.2-1.8-3.1c-1.6-1.8-4-1.8-5.6,0.1
			c-0.6,0.7-1.1,1.6-1.5,2.5c-0.9,2.3-1,4.7-0.9,7.1c0,0.4,0.1,0.7,0.2,1.2C84.9,26.9,88.3,26.2,91.9,25.4z"/>
		<path class="st0" d="M73.2,13.3c-0.3,0.8-0.5,1.3-0.7,1.8c-2.9,7-5.7,14-8.6,21c-0.4,1.1-0.4,1.8,0.2,2.7c0.5,0.6,0.8,1.3,1.3,2.2
			c-3.1,0.3-5.9,0.5-8.8,0.8c-0.2-0.5-0.4-0.9-0.6-1.3c-1.6-4-3.2-8-4.8-12.1c-1.8-4.5-3.9-8.8-6.5-13c-0.2-0.4-0.4-0.7-0.7-1.3
			c2.9-0.5,5.8-0.7,8.7-1c2.4,6.1,4.9,12.1,7.3,18.1c0.1,0,0.2,0,0.3,0c0.2-0.4,0.4-0.9,0.6-1.3c2-4.9,4-9.7,6-14.6
			c0.5-1.2,1-1.8,2.4-1.8C70.6,13.6,71.8,13.4,73.2,13.3L73.2,13.3z"/>
		<path class="st0" d="M121.9,15c0.2,2.2,0.3,4.2,0.5,6.4h-2c-0.3-0.7-0.5-1.4-0.8-2.1c-1.6-3.1-5.1-4.4-8.2-3
			c-2.4,1.2-2.7,4-0.7,5.7c0.7,0.6,1.6,0.9,2.5,1.3c1.4,0.5,2.8,0.9,4.2,1.4c0.5,0.2,1.1,0.4,1.6,0.6c3.4,1.5,5,4.1,5,7.9
			c-0.1,3.7-2,6.4-5.4,7.7c-3,1.1-6,1.1-9.1,0.6c-1.9-0.3-3.8-0.7-5.6-1.7c-0.1-2.3-0.2-4.6-0.4-7h1.7c0.1,0.2,0.2,0.4,0.2,0.7
			c0.9,3.9,5.6,6.6,9.8,5.4c1.7-0.5,2.8-1.7,2.9-3.1c0.1-1.1-0.2-1.9-1-2.7c-0.9-0.9-2-1.4-3.3-1.8c-1.3-0.4-2.6-0.8-3.8-1.3
			c-0.4-0.2-0.9-0.4-1.3-0.6c-3.5-1.7-5.2-4.5-4.9-8.1c0.3-3.8,2.6-6.5,6.3-7.6C113.6,12.6,118.9,13.3,121.9,15L121.9,15z"/>
		<path class="st0" d="M138.1,17.2c0,0.6,0,1,0,1.5c0,6,0,12.1,0,18.1c0,1,0,1.9,1,2.5c1,0.6,2,0.1,2.9-0.5c0.2-0.2,0.4-0.3,0.8-0.5
			c0.3,0.2,0.7,0.5,1,0.7c-0.1,0.2-0.1,0.4-0.2,0.5c-2.3,2.6-6.8,3.5-9.9,1.9c-1-0.5-1.7-1.3-2.2-2.3c-0.7-1.4-0.9-2.8-0.9-4.4
			c0-4,0-7.9,0-11.9c0-1.8-0.3-3.6-0.4-5.6h-3.5V14h5.8c-0.2-2.5-1.4-4.3-3-6.2c3.1-0.3,5.9-0.6,8.9-1V14h6.5V17
			C142.5,17.2,140.4,17,138.1,17.2L138.1,17.2z"/>
		<path class="st0" d="M189.7,21.9c-0.3-1.4-0.5-2.5-0.8-3.7c-0.5-1.8-1.6-2.1-2.9-0.6c-1.3,1.4-1.9,3.2-2.1,5.1
			c-0.2,2.2-0.3,4.5-0.2,6.8c0.2,3.6,0.8,7.1,1.2,10.7c0,0.3,0,0.6,0.1,1.1c-2.8,0.2-5.5,0.5-8.4,0.7c0-0.7-0.1-1.2-0.1-1.7
			c0-3.3-0.1-6.6,0-9.9c0.1-5.2-0.4-10.3-1.3-15.3c0-0.1,0-0.3-0.1-0.6c2.7-0.6,5.5-0.7,8.5-1.1v3.7c0.1,0,0.2,0.1,0.3,0.1
			c0.3-0.3,0.6-0.6,0.9-0.9c2.2-2.4,5-3.2,8.1-2.8c3,0.4,4.6,2.4,4.5,5.4C195,20,192.4,20.9,189.7,21.9L189.7,21.9z"/>
		<path class="st0" d="M209.8,41.2c-2.8,0.3-5.6,0.6-8.4,0.7c-0.2-9.3,0.5-18.4-1.5-27.5c2.9-0.4,5.7-0.7,8.7-1v3.7
			c0.1,0,0.2,0.1,0.3,0.1c0.3-0.4,0.7-0.7,1-1.1c2.5-2.4,5.4-3.2,8.7-2.5c2.5,0.6,3.8,2.5,3.7,5.4c-2.5,1-5,1.9-7.7,3
			c-0.1-0.7-0.2-1.2-0.3-1.8c-0.1-0.6-0.2-1.2-0.4-1.8c-0.2-0.7-0.3-1.5-1.1-1.7c-0.9-0.2-1.5,0.4-2,1c-1.5,1.9-2.1,4.2-2.2,6.6
			c-0.2,4.2,0.2,8.3,0.7,12.4C209.4,38.2,209.6,39.7,209.8,41.2L209.8,41.2z"/>
		<path class="st0" d="M0,14.2c3-0.3,5.7-0.6,8.5-1c0,0.6,0.1,1.1,0.1,1.6c0,3.4,0,6.8,0,10.2C8.5,30,9,34.8,9.8,39.6
			c0.1,0.5,0.1,0.9,0.2,1.5c-2.8,0.3-5.5,0.5-8.4,0.8C1.4,32.6,2.1,23.5,0,14.2z"/>
		<path class="st0" d="M4.6,0C7-0.2,9.2,2.2,9.1,4.6C9,7.2,7,9.2,4.5,9.1c-2.5,0-4.4-2-4.4-4.6C0.1,1.9,2.3-0.3,4.6,0z"/>
	</g>
</g>
</svg>
